<svg width="262" height="100" viewBox="0 0 262 100" fill="none" xmlns="http://www.w3.org/2000/svg">
<path d="M6.63934 73.6885L39.0164 90.1639L70.1639 73.6885V9.2623H6.63934V73.6885Z" fill="white"/>
<path d="M70.8197 9.50821L5.98364 74.8361L39.5902 91.4754L70.8197 75.4918V9.50821Z" fill="#F2F3F2"/>
<path d="M4.50824 30.7377V75.082L5.65578 75.6557L38.0328 92.1311L39.0164 92.6229L40 92.1311L71.2296 75.6557L72.3771 75.082V7.13113H4.50824V30.7377ZM6.63939 73.8524V9.26228H70.2459V73.8524L39.0164 90.3279L6.63939 73.8524Z" fill="#DCDEDC"/>
<path d="M38.4426 10.3279C38.7705 10.3279 39.0984 10.3279 39.4263 10.4098L38.4426 12.2951C36.9672 12.2131 35.6558 13.3606 35.5738 14.8361C35.4918 16.3115 36.6394 17.6229 38.1148 17.7049H38.4426C39.0984 17.7049 39.7541 17.459 40.2459 17.0492L41.3115 18.8524C40.4918 19.4262 39.5082 19.7541 38.4426 19.7541C35.8197 19.8361 33.6066 17.8688 33.5246 15.2459C33.4426 12.6229 35.4099 10.4098 38.0328 10.3279H38.4426ZM41.8033 14.3442L43.0328 16.3934L41.8033 18.3606L40.6558 16.3934H38.2787L39.5082 14.3442H41.8033ZM39.8361 13.6065C39.8361 13.2787 39.9181 12.9508 40.082 12.7049C40.2459 12.459 40.5738 12.2131 40.8197 12.0492L40.9836 11.9672C41.3115 11.8033 41.3935 11.7213 41.3935 11.5574C41.3935 11.3934 41.1476 11.2295 40.9836 11.2295C40.6558 11.2295 40.4099 11.3934 40.2459 11.7213L39.8361 11.3115C39.9181 11.1475 40.082 10.9836 40.2459 10.8197C40.4918 10.6557 40.7377 10.6557 40.9836 10.6557C41.2295 10.6557 41.5574 10.7377 41.7213 10.9016C41.8853 11.0656 42.0492 11.3115 42.0492 11.5574C42.0492 11.9672 41.8033 12.2951 41.3115 12.459L41.0656 12.6229C40.8197 12.7869 40.6558 12.8688 40.5738 13.1147H42.0492V13.6885L39.8361 13.6065ZM38.4426 23.8524L46.2295 19.4262V7.13113H30.5738V19.3442L38.4426 23.8524Z" fill="#FF492C"/>
<path d="M73.9344 52.8688H2.95083L0.327881 58.6065L2.95083 64.3442H73.9344L76.4754 58.6065L73.9344 52.8688Z" fill="#FFD200"/>
<path d="M18.0656 49.2787C17.4372 49.2787 16.8825 49.1557 16.4016 48.9098C15.9208 48.6639 15.5492 48.3169 15.2869 47.8689C15.0191 47.4208 14.8853 46.9071 14.8853 46.3279V40.7213C14.8853 40.6831 14.8989 40.6475 14.9262 40.6148C14.9536 40.5874 14.9891 40.5738 15.0328 40.5738H16.4672C16.5109 40.5738 16.5465 40.5874 16.5738 40.6148C16.6066 40.6475 16.623 40.6831 16.623 40.7213V46.3443C16.623 46.776 16.7541 47.1257 17.0164 47.3934C17.2842 47.6612 17.6339 47.7951 18.0656 47.7951C18.5027 47.7951 18.8552 47.6612 19.123 47.3934C19.3907 47.1257 19.5246 46.776 19.5246 46.3443V40.7213C19.5246 40.6831 19.5383 40.6475 19.5656 40.6148C19.5929 40.5874 19.6257 40.5738 19.6639 40.5738H21.1066C21.1448 40.5738 21.1803 40.5874 21.2131 40.6148C21.2404 40.6475 21.2541 40.6831 21.2541 40.7213V46.3279C21.2541 46.9071 21.1202 47.4208 20.8525 47.8689C20.5847 48.3169 20.2131 48.6639 19.7377 48.9098C19.2568 49.1557 18.6995 49.2787 18.0656 49.2787ZM25.0902 49.2623C24.5437 49.2623 24.0656 49.1858 23.6557 49.0328C23.2459 48.8798 22.9262 48.6639 22.6967 48.3852C22.4727 48.1066 22.3607 47.7896 22.3607 47.4344V47.3115C22.3607 47.2732 22.3743 47.2377 22.4016 47.2049C22.4344 47.1776 22.47 47.1639 22.5082 47.1639H23.8689C23.9126 47.1639 23.9481 47.1776 23.9754 47.2049C24.0027 47.2377 24.0164 47.2732 24.0164 47.3115V47.3197C24.0164 47.5055 24.1175 47.6612 24.3197 47.7869C24.5219 47.9126 24.776 47.9754 25.082 47.9754C25.3607 47.9754 25.5847 47.9208 25.7541 47.8115C25.9235 47.6967 26.0082 47.5601 26.0082 47.4016C26.0082 47.2541 25.9344 47.1421 25.7869 47.0656C25.6448 46.9945 25.4044 46.918 25.0656 46.8361C24.6776 46.7377 24.3743 46.6421 24.1557 46.5492C23.6312 46.3689 23.2131 46.1475 22.9016 45.8852C22.5902 45.6229 22.4344 45.2459 22.4344 44.7541C22.4344 44.1475 22.6694 43.6667 23.1394 43.3115C23.6148 42.9563 24.2404 42.7787 25.0164 42.7787C25.541 42.7787 26 42.8607 26.3935 43.0246C26.7869 43.194 27.0929 43.4317 27.3115 43.7377C27.5246 44.0382 27.6312 44.3825 27.6312 44.7705C27.6312 44.8087 27.6175 44.8415 27.5902 44.8689C27.5628 44.8962 27.5273 44.9098 27.4836 44.9098H26.1721C26.1339 44.9098 26.0984 44.8962 26.0656 44.8689C26.0383 44.8415 26.0246 44.8087 26.0246 44.7705C26.0246 44.5902 25.9317 44.4372 25.7459 44.3115C25.5656 44.1858 25.3224 44.1229 25.0164 44.1229C24.7486 44.1229 24.5273 44.1749 24.3525 44.2787C24.1776 44.377 24.0902 44.5109 24.0902 44.6803C24.0902 44.8443 24.1749 44.9672 24.3443 45.0492C24.5137 45.1311 24.7951 45.2186 25.1885 45.3115C25.276 45.3333 25.3798 45.3579 25.5 45.3852C25.6148 45.4126 25.735 45.4481 25.8607 45.4918C26.4454 45.6667 26.9044 45.888 27.2377 46.1557C27.5765 46.429 27.7459 46.8224 27.7459 47.3361C27.7459 47.9426 27.5055 48.4153 27.0246 48.7541C26.5492 49.0929 25.9044 49.2623 25.0902 49.2623ZM31.2623 42.7623C31.7978 42.7623 32.2732 42.8552 32.6885 43.041C33.1038 43.2268 33.429 43.4781 33.6639 43.7951C33.8989 44.1175 34.0164 44.4754 34.0164 44.8689V49.0328C34.0164 49.0765 34.0027 49.112 33.9754 49.1393C33.9426 49.1667 33.9071 49.1803 33.8689 49.1803H32.4262C32.388 49.1803 32.3552 49.1667 32.3279 49.1393C32.2951 49.112 32.2787 49.0765 32.2787 49.0328V48.6311C32.2787 48.6038 32.2732 48.5874 32.2623 48.582C32.2404 48.571 32.2241 48.5792 32.2131 48.6066C31.8634 49.0546 31.3088 49.2787 30.5492 49.2787C29.9098 49.2787 29.3935 49.1229 29 48.8115C28.6066 48.5 28.4098 48.041 28.4098 47.4344C28.4098 46.806 28.6312 46.3169 29.0738 45.9672C29.5164 45.6175 30.1475 45.4426 30.9672 45.4426H32.2213C32.2596 45.4426 32.2787 45.4235 32.2787 45.3852V45.1148C32.2787 44.8415 32.1995 44.6284 32.041 44.4754C31.8716 44.3279 31.623 44.2541 31.2951 44.2541C31.0437 44.2541 30.8333 44.2978 30.6639 44.3852C30.5 44.4781 30.3935 44.6066 30.3443 44.7705C30.3169 44.8579 30.2623 44.8989 30.1803 44.8934L28.6885 44.6967C28.5902 44.6803 28.5465 44.6421 28.5574 44.582C28.5902 44.2377 28.7268 43.9262 28.9672 43.6475C29.2077 43.3689 29.5273 43.153 29.9262 43C30.3251 42.8415 30.7705 42.7623 31.2623 42.7623ZM31.0164 47.9918C31.3661 47.9918 31.6639 47.8962 31.9098 47.7049C32.1557 47.5137 32.2787 47.2705 32.2787 46.9754V46.5328C32.2787 46.4945 32.2596 46.4754 32.2213 46.4754H31.3361C30.9645 46.4754 30.6749 46.5464 30.4672 46.6885C30.2596 46.8251 30.1557 47.0219 30.1557 47.2787C30.1557 47.4973 30.2322 47.6694 30.3853 47.7951C30.5437 47.9262 30.7541 47.9918 31.0164 47.9918ZM40.8279 44.4672C40.9809 44.8989 41.0574 45.4098 41.0574 46C41.0574 46.5628 40.9891 47.0574 40.8525 47.4836C40.6612 48.041 40.3607 48.4809 39.9508 48.8033C39.5355 49.1202 39.0465 49.2787 38.4836 49.2787C37.8825 49.2787 37.4098 49.0546 37.0656 48.6066C37.0492 48.5902 37.0328 48.582 37.0164 48.582C37 48.5874 36.9918 48.6038 36.9918 48.6311V49.0328C36.9918 49.0765 36.9782 49.112 36.9508 49.1393C36.918 49.1667 36.8825 49.1803 36.8443 49.1803H35.4016C35.3634 49.1803 35.3306 49.1667 35.3033 49.1393C35.2705 49.112 35.2541 49.0765 35.2541 49.0328V40.7213C35.2541 40.6831 35.2705 40.6475 35.3033 40.6148C35.3306 40.5874 35.3634 40.5738 35.4016 40.5738H36.8443C36.8825 40.5738 36.918 40.5874 36.9508 40.6148C36.9782 40.6475 36.9918 40.6831 36.9918 40.7213V43.3525C36.9918 43.3798 37 43.3962 37.0164 43.4016C37.0328 43.4071 37.0492 43.3989 37.0656 43.377C37.3825 42.9672 37.8361 42.7623 38.4262 42.7623C39.0273 42.7623 39.5301 42.9153 39.9344 43.2213C40.3388 43.5273 40.6366 43.9426 40.8279 44.4672ZM39.0082 47.2623C39.1776 46.9508 39.2623 46.541 39.2623 46.0328C39.2623 45.4645 39.1639 45.0301 38.9672 44.7295C38.7705 44.4126 38.4809 44.2541 38.0984 44.2541C37.7377 44.2541 37.4618 44.4126 37.2705 44.7295C37.0902 45.041 37 45.4727 37 46.0246C37 46.571 37.082 46.9836 37.2459 47.2623C37.4426 47.6175 37.7295 47.7951 38.1066 47.7951C38.5109 47.7951 38.8115 47.6175 39.0082 47.2623ZM43.1312 42.1475C42.847 42.1475 42.6148 42.0546 42.4344 41.8689C42.2486 41.6885 42.1557 41.459 42.1557 41.1803C42.1557 40.8907 42.2459 40.6557 42.4262 40.4754C42.6066 40.2951 42.8415 40.2049 43.1312 40.2049C43.4153 40.2049 43.6475 40.2951 43.8279 40.4754C44.0082 40.6557 44.0984 40.8907 44.0984 41.1803C44.0984 41.459 44.0055 41.6885 43.8197 41.8689C43.6339 42.0546 43.4044 42.1475 43.1312 42.1475ZM42.3935 49.1803C42.3497 49.1803 42.3142 49.1667 42.2869 49.1393C42.2596 49.112 42.2459 49.0765 42.2459 49.0328V43C42.2459 42.9563 42.2596 42.9208 42.2869 42.8934C42.3142 42.8661 42.3497 42.8525 42.3935 42.8525H43.8279C43.8716 42.8525 43.9071 42.8661 43.9344 42.8934C43.9618 42.9208 43.9754 42.9563 43.9754 43V49.0328C43.9754 49.0765 43.9618 49.112 43.9344 49.1393C43.9071 49.1667 43.8716 49.1803 43.8279 49.1803H42.3935ZM45.4754 49.1803C45.4372 49.1803 45.4016 49.1667 45.3689 49.1393C45.3415 49.112 45.3279 49.0765 45.3279 49.0328V40.7213C45.3279 40.6831 45.3415 40.6475 45.3689 40.6148C45.4016 40.5874 45.4372 40.5738 45.4754 40.5738H46.918C46.9563 40.5738 46.9891 40.5874 47.0164 40.6148C47.0492 40.6475 47.0656 40.6831 47.0656 40.7213V49.0328C47.0656 49.0765 47.0492 49.112 47.0164 49.1393C46.9891 49.1667 46.9563 49.1803 46.918 49.1803H45.4754ZM49.2623 42.1475C48.9836 42.1475 48.7514 42.0546 48.5656 41.8689C48.3798 41.6885 48.2869 41.459 48.2869 41.1803C48.2869 40.8907 48.3771 40.6557 48.5574 40.4754C48.7432 40.2951 48.9781 40.2049 49.2623 40.2049C49.5465 40.2049 49.7787 40.2951 49.959 40.4754C50.1394 40.6557 50.2295 40.8907 50.2295 41.1803C50.2295 41.459 50.1394 41.6885 49.959 41.8689C49.7732 42.0546 49.541 42.1475 49.2623 42.1475ZM48.5246 49.1803C48.4809 49.1803 48.4454 49.1667 48.418 49.1393C48.3907 49.112 48.3771 49.0765 48.3771 49.0328V43C48.3771 42.9563 48.3907 42.9208 48.418 42.8934C48.4454 42.8661 48.4809 42.8525 48.5246 42.8525H49.959C50.0027 42.8525 50.0383 42.8661 50.0656 42.8934C50.0929 42.9208 50.1066 42.9563 50.1066 43V49.0328C50.1066 49.0765 50.0929 49.112 50.0656 49.1393C50.0383 49.1667 50.0027 49.1803 49.959 49.1803H48.5246ZM55.0902 44.1066C55.0902 44.1448 55.0765 44.1776 55.0492 44.2049C55.0219 44.2377 54.9863 44.2541 54.9426 44.2541H53.7623C53.724 44.2541 53.7049 44.2732 53.7049 44.3115V46.918C53.7049 47.1858 53.7596 47.388 53.8689 47.5246C53.9782 47.6557 54.1557 47.7213 54.4016 47.7213H54.8115C54.8497 47.7213 54.8825 47.735 54.9098 47.7623C54.9426 47.7896 54.959 47.8251 54.959 47.8689V49.0328C54.959 49.1257 54.9098 49.1776 54.8115 49.1885C54.4618 49.2049 54.2159 49.2131 54.0738 49.2131C53.3907 49.2131 52.8825 49.1011 52.5492 48.877C52.2104 48.653 52.0383 48.2295 52.0328 47.6066V44.3115C52.0328 44.2732 52.0109 44.2541 51.9672 44.2541H51.2705C51.2268 44.2541 51.1913 44.2377 51.1639 44.2049C51.1366 44.1776 51.123 44.1448 51.123 44.1066V43.0082C51.123 42.9699 51.1366 42.9344 51.1639 42.9016C51.1913 42.8743 51.2268 42.8607 51.2705 42.8607H51.9672C52.0109 42.8607 52.0328 42.8388 52.0328 42.7951V41.3361C52.0328 41.2978 52.0465 41.2623 52.0738 41.2295C52.1011 41.2022 52.1366 41.1885 52.1803 41.1885H53.5574C53.5956 41.1885 53.6284 41.2022 53.6557 41.2295C53.6885 41.2623 53.7049 41.2978 53.7049 41.3361V42.7951C53.7049 42.8388 53.724 42.8607 53.7623 42.8607H54.9426C54.9863 42.8607 55.0219 42.8743 55.0492 42.9016C55.0765 42.9344 55.0902 42.9699 55.0902 43.0082V44.1066ZM56.0984 51.6229C56.0765 51.6229 56.0574 51.6093 56.041 51.582C56.0246 51.5546 56.0164 51.5191 56.0164 51.4754V50.3525C56.0164 50.3087 56.0301 50.2732 56.0574 50.2459C56.0847 50.2131 56.1202 50.1967 56.1639 50.1967C56.5082 50.1913 56.7787 50.1639 56.9754 50.1148C57.1776 50.0656 57.3388 49.9699 57.459 49.8279C57.5792 49.6913 57.6721 49.4863 57.7377 49.2131C57.7432 49.1967 57.7432 49.1749 57.7377 49.1475L55.7213 43.0246C55.7104 43.0082 55.7049 42.9863 55.7049 42.959C55.7049 42.888 55.7514 42.8525 55.8443 42.8525H57.3771C57.47 42.8525 57.5273 42.8934 57.5492 42.9754L58.582 46.959C58.5929 46.9809 58.6066 46.9918 58.623 46.9918C58.6393 46.9918 58.6503 46.9809 58.6557 46.959L59.6885 42.9754C59.7159 42.8934 59.7732 42.8525 59.8607 42.8525H61.3607C61.4098 42.8525 61.4454 42.8661 61.4672 42.8934C61.4891 42.9208 61.4918 42.9645 61.4754 43.0246L59.3443 49.4098C59.1421 50.0109 58.9344 50.4617 58.7213 50.7623C58.5082 51.0628 58.2077 51.2814 57.8197 51.418C57.4372 51.5546 56.8935 51.6229 56.1885 51.6229H56.0984ZM31.2869 32.4016C31.2377 32.4235 31.2377 32.4481 31.2869 32.4754C32.0628 32.8743 32.4508 33.541 32.4508 34.4754C32.4508 35.2732 32.1803 35.8743 31.6394 36.2787C31.0984 36.6831 30.3907 36.8852 29.5164 36.8852H26.3279C26.2896 36.8852 26.2568 36.8716 26.2295 36.8443C26.1967 36.8169 26.1803 36.7814 26.1803 36.7377V28.4262C26.1803 28.388 26.1967 28.3525 26.2295 28.3197C26.2568 28.2923 26.2896 28.2787 26.3279 28.2787H29.418C31.3579 28.2787 32.3279 29.0656 32.3279 30.6393C32.3279 31.459 31.9809 32.0464 31.2869 32.4016ZM27.9754 29.7623C27.9372 29.7623 27.918 29.7842 27.918 29.8279V31.7459C27.918 31.7896 27.9372 31.8115 27.9754 31.8115H29.418C29.8006 31.8115 30.1011 31.7213 30.3197 31.541C30.5273 31.3607 30.6312 31.1148 30.6312 30.8033C30.6312 30.4809 30.5273 30.2268 30.3197 30.041C30.1011 29.8552 29.8006 29.7623 29.418 29.7623H27.9754ZM29.5164 35.3852C29.8934 35.3852 30.1885 35.2896 30.4016 35.0984C30.6148 34.9071 30.7213 34.6421 30.7213 34.3033C30.7213 33.9699 30.6148 33.7049 30.4016 33.5082C30.1885 33.3169 29.888 33.2213 29.5 33.2213H27.9754C27.9372 33.2213 27.918 33.2432 27.918 33.2869V35.3197C27.918 35.3634 27.9372 35.3852 27.9754 35.3852H29.5164ZM39.2869 33.0738C39.3361 33.3852 39.3525 33.7322 39.3361 34.1148C39.3306 34.2186 39.2787 34.2705 39.1803 34.2705H35.3771C35.3279 34.2705 35.3115 34.2896 35.3279 34.3279C35.3552 34.4918 35.4016 34.6557 35.4672 34.8197C35.6803 35.2787 36.1148 35.5082 36.7705 35.5082C37.2951 35.5027 37.7077 35.2896 38.0082 34.8689C38.041 34.8197 38.0792 34.7951 38.123 34.7951C38.1448 34.7951 38.1721 34.8115 38.2049 34.8443L39.0902 35.7131C39.1339 35.7568 39.1557 35.7951 39.1557 35.8279C39.1557 35.8443 39.1394 35.877 39.1066 35.9262C38.8333 36.265 38.4836 36.5246 38.0574 36.7049C37.6366 36.8907 37.1694 36.9836 36.6557 36.9836C35.9508 36.9836 35.3552 36.8251 34.8689 36.5082C34.3825 36.1858 34.0328 35.7377 33.8197 35.1639C33.6448 34.7541 33.5574 34.2186 33.5574 33.5574C33.5574 33.1038 33.6202 32.7049 33.7459 32.3607C33.9317 31.7814 34.2623 31.3197 34.7377 30.9754C35.2077 30.6311 35.765 30.459 36.4098 30.459C37.2295 30.459 37.888 30.6967 38.3853 31.1721C38.8825 31.6475 39.1831 32.2814 39.2869 33.0738ZM36.4262 31.959C35.9071 31.959 35.5656 32.1995 35.4016 32.6803C35.3689 32.7896 35.3415 32.9208 35.3197 33.0738C35.3197 33.112 35.3388 33.1311 35.3771 33.1311H37.5082C37.5574 33.1311 37.5738 33.112 37.5574 33.0738C37.5137 32.8388 37.4918 32.724 37.4918 32.7295C37.4208 32.4836 37.2924 32.2923 37.1066 32.1557C36.9208 32.0246 36.694 31.959 36.4262 31.959ZM42.8443 36.9672C42.2924 36.9672 41.8115 36.8907 41.4016 36.7377C40.9918 36.5847 40.6749 36.3688 40.4508 36.0902C40.2268 35.8115 40.1148 35.4945 40.1148 35.1393V35.0164C40.1148 34.9781 40.1284 34.9426 40.1557 34.9098C40.1831 34.8825 40.2186 34.8689 40.2623 34.8689H41.623C41.6667 34.8689 41.7022 34.8825 41.7295 34.9098C41.7568 34.9426 41.7705 34.9781 41.7705 35.0164V35.0246C41.7705 35.2104 41.8716 35.3661 42.0738 35.4918C42.276 35.6175 42.5273 35.6803 42.8279 35.6803C43.1066 35.6803 43.3333 35.6257 43.5082 35.5164C43.6776 35.4016 43.7623 35.265 43.7623 35.1066C43.7623 34.959 43.6885 34.847 43.541 34.7705C43.3934 34.6994 43.153 34.6229 42.8197 34.541C42.4317 34.4426 42.1284 34.347 41.9098 34.2541C41.3853 34.0738 40.9672 33.8525 40.6557 33.5902C40.3443 33.3279 40.1885 32.9508 40.1885 32.459C40.1885 31.8525 40.4235 31.3716 40.8934 31.0164C41.3634 30.6612 41.9891 30.4836 42.7705 30.4836C43.2951 30.4836 43.7541 30.5656 44.1475 30.7295C44.541 30.8989 44.847 31.1366 45.0656 31.4426C45.2787 31.7432 45.3853 32.0874 45.3853 32.4754C45.3853 32.5137 45.3716 32.5464 45.3443 32.5738C45.3169 32.6011 45.2814 32.6148 45.2377 32.6148H43.9262C43.8825 32.6148 43.847 32.6011 43.8197 32.5738C43.7924 32.5464 43.7787 32.5137 43.7787 32.4754C43.7787 32.2951 43.6858 32.1421 43.5 32.0164C43.3142 31.8907 43.071 31.8279 42.7705 31.8279C42.4973 31.8279 42.276 31.8798 42.1066 31.9836C41.9317 32.082 41.8443 32.2158 41.8443 32.3852C41.8443 32.5492 41.929 32.6721 42.0984 32.7541C42.2678 32.8361 42.5492 32.9235 42.9426 33.0164C43.0301 33.0382 43.1312 33.0628 43.2459 33.0902C43.3607 33.1175 43.4836 33.153 43.6148 33.1967C44.1995 33.3716 44.6585 33.5929 44.9918 33.8607C45.3306 34.1339 45.5 34.5273 45.5 35.041C45.5 35.6475 45.2596 36.1202 44.7787 36.459C44.2978 36.7978 43.653 36.9672 42.8443 36.9672ZM50.1066 31.8115C50.1066 31.8497 50.0929 31.8825 50.0656 31.9098C50.0383 31.9426 50.0027 31.959 49.959 31.959H48.7787C48.7404 31.959 48.7213 31.9781 48.7213 32.0164V34.623C48.7213 34.8907 48.776 35.0929 48.8853 35.2295C48.9945 35.3607 49.1749 35.4262 49.4262 35.4262H49.8279C49.8661 35.4262 49.9016 35.4399 49.9344 35.4672C49.9618 35.4945 49.9754 35.5301 49.9754 35.5738V36.7377C49.9754 36.8306 49.9262 36.8825 49.8279 36.8934C49.4836 36.9098 49.2377 36.918 49.0902 36.918C48.4071 36.918 47.8989 36.806 47.5656 36.582C47.2268 36.3579 47.0547 35.9344 47.0492 35.3115V32.0164C47.0492 31.9781 47.0273 31.959 46.9836 31.959H46.2869C46.2432 31.959 46.2077 31.9426 46.1803 31.9098C46.153 31.8825 46.1394 31.8497 46.1394 31.8115V30.7131C46.1394 30.6749 46.153 30.6393 46.1803 30.6066C46.2077 30.5792 46.2432 30.5656 46.2869 30.5656H46.9836C47.0273 30.5656 47.0492 30.5437 47.0492 30.5V29.041C47.0492 29.0027 47.0628 28.9672 47.0902 28.9344C47.1175 28.9071 47.153 28.8934 47.1967 28.8934H48.5738C48.612 28.8934 48.6475 28.9071 48.6803 28.9344C48.7077 28.9672 48.7213 29.0027 48.7213 29.041V30.5C48.7213 30.5437 48.7404 30.5656 48.7787 30.5656H49.959C50.0027 30.5656 50.0383 30.5792 50.0656 30.6066C50.0929 30.6393 50.1066 30.6749 50.1066 30.7131V31.8115Z" fill="#252530"/>
<path d="M25.5738 61.8033C25.5137 61.8033 25.4754 61.7759 25.459 61.7213L23.9672 56.1721L23.959 56.1393C23.959 56.0901 23.9891 56.0656 24.0492 56.0656H24.8525C24.9126 56.0656 24.9508 56.0929 24.9672 56.1475L25.9017 59.8852C25.9071 59.9016 25.9153 59.9098 25.9263 59.9098C25.9372 59.9098 25.9454 59.9016 25.9508 59.8852L26.8443 56.1475C26.8607 56.0929 26.8962 56.0656 26.9509 56.0656H27.7377C27.7978 56.0656 27.8361 56.0929 27.8525 56.1475L28.8033 59.8934C28.8088 59.9098 28.817 59.918 28.8279 59.918C28.8388 59.918 28.847 59.9098 28.8525 59.8934L29.7705 56.1475C29.7869 56.0929 29.8252 56.0656 29.8853 56.0656H30.6476C30.7241 56.0656 30.7541 56.1011 30.7377 56.1721L29.3197 61.7213C29.3033 61.7759 29.2651 61.8033 29.2049 61.8033H28.4427C28.3825 61.8033 28.3443 61.7759 28.3279 61.7213L27.3689 57.8115C27.3634 57.7951 27.3552 57.7841 27.3443 57.7787C27.3334 57.7787 27.3252 57.7896 27.3197 57.8115L26.4017 61.7213C26.3853 61.7759 26.3498 61.8033 26.2951 61.8033H25.5738ZM31.6476 61.8033C31.6202 61.8033 31.5957 61.7923 31.5738 61.7705C31.5574 61.7541 31.5492 61.7322 31.5492 61.7049V56.1639C31.5492 56.1366 31.5574 56.1147 31.5738 56.0983C31.5957 56.0765 31.6202 56.0656 31.6476 56.0656H32.4017C32.429 56.0656 32.4508 56.0765 32.4672 56.0983C32.4891 56.1147 32.5 56.1366 32.5 56.1639V61.7049C32.5 61.7322 32.4891 61.7541 32.4672 61.7705C32.4508 61.7923 32.429 61.8033 32.4017 61.8033H31.6476ZM37.0328 56.1639C37.0328 56.1366 37.041 56.1147 37.0574 56.0983C37.0793 56.0765 37.1039 56.0656 37.1312 56.0656H37.8853C37.9126 56.0656 37.9345 56.0765 37.9508 56.0983C37.9727 56.1147 37.9836 56.1366 37.9836 56.1639V61.7049C37.9836 61.7322 37.9727 61.7541 37.9508 61.7705C37.9345 61.7923 37.9126 61.8033 37.8853 61.8033H37.1558C37.1011 61.8033 37.0629 61.7814 37.041 61.7377L34.6804 57.8688C34.6694 57.8524 34.6585 57.8442 34.6476 57.8442C34.6366 57.8497 34.6312 57.8634 34.6312 57.8852L34.6476 61.7049C34.6476 61.7322 34.6366 61.7541 34.6148 61.7705C34.5984 61.7923 34.5765 61.8033 34.5492 61.8033H33.7951C33.7678 61.8033 33.7432 61.7923 33.7213 61.7705C33.7049 61.7541 33.6968 61.7322 33.6968 61.7049V56.1639C33.6968 56.1366 33.7049 56.1147 33.7213 56.0983C33.7432 56.0765 33.7678 56.0656 33.7951 56.0656H34.5246C34.5793 56.0656 34.6175 56.0874 34.6394 56.1311L36.9918 60C37.0028 60.0164 37.0137 60.0218 37.0246 60.0164C37.0355 60.0164 37.041 60.0054 37.041 59.9836L37.0328 56.1639ZM42.9509 56.0656C42.9782 56.0656 43 56.0765 43.0164 56.0983C43.0383 56.1147 43.0492 56.1366 43.0492 56.1639V56.7951C43.0492 56.8224 43.0383 56.8442 43.0164 56.8606C43 56.8825 42.9782 56.8934 42.9509 56.8934H41.4427C41.4153 56.8934 41.4017 56.9071 41.4017 56.9344V61.7049C41.4017 61.7322 41.3935 61.7541 41.3771 61.7705C41.3552 61.7923 41.3306 61.8033 41.3033 61.8033H40.5492C40.5219 61.8033 40.5 61.7923 40.4836 61.7705C40.4618 61.7541 40.4508 61.7322 40.4508 61.7049V56.9344C40.4508 56.9071 40.4372 56.8934 40.4099 56.8934H38.959C38.9317 56.8934 38.9071 56.8825 38.8853 56.8606C38.8689 56.8442 38.8607 56.8224 38.8607 56.7951V56.1639C38.8607 56.1366 38.8689 56.1147 38.8853 56.0983C38.9071 56.0765 38.9317 56.0656 38.959 56.0656H42.9509ZM47.8115 56.7869C47.8115 56.8142 47.8006 56.836 47.7787 56.8524C47.7623 56.8743 47.7405 56.8852 47.7131 56.8852H44.9181C44.8907 56.8852 44.8771 56.8989 44.8771 56.9262V58.459C44.8771 58.4863 44.8907 58.5 44.9181 58.5H46.7951C46.8224 58.5 46.847 58.5082 46.8689 58.5246C46.8853 58.5464 46.8935 58.571 46.8935 58.5983V59.2213C46.8935 59.2486 46.8853 59.2732 46.8689 59.2951C46.847 59.3114 46.8224 59.3197 46.7951 59.3197H44.9181C44.8907 59.3197 44.8771 59.3333 44.8771 59.3606V60.9426C44.8771 60.9699 44.8907 60.9836 44.9181 60.9836H47.7131C47.7405 60.9836 47.7623 60.9945 47.7787 61.0164C47.8006 61.0328 47.8115 61.0546 47.8115 61.0819V61.7049C47.8115 61.7322 47.8006 61.7541 47.7787 61.7705C47.7623 61.7923 47.7405 61.8033 47.7131 61.8033H44.0246C43.9973 61.8033 43.9727 61.7923 43.9508 61.7705C43.9345 61.7541 43.9263 61.7322 43.9263 61.7049V56.1639C43.9263 56.1366 43.9345 56.1147 43.9508 56.0983C43.9727 56.0765 43.9973 56.0656 44.0246 56.0656H47.7131C47.7405 56.0656 47.7623 56.0765 47.7787 56.0983C47.8006 56.1147 47.8115 56.1366 47.8115 56.1639V56.7869ZM52 61.8033C51.9454 61.8033 51.9071 61.7787 51.8853 61.7295L50.8033 59.3688C50.7924 59.347 50.776 59.336 50.7541 59.336H49.7705C49.7432 59.336 49.7295 59.3497 49.7295 59.377V61.7049C49.7295 61.7322 49.7186 61.7541 49.6968 61.7705C49.6804 61.7923 49.6585 61.8033 49.6312 61.8033H48.8771C48.8498 61.8033 48.8252 61.7923 48.8033 61.7705C48.7869 61.7541 48.7787 61.7322 48.7787 61.7049V56.1639C48.7787 56.1366 48.7869 56.1147 48.8033 56.0983C48.8252 56.0765 48.8498 56.0656 48.8771 56.0656H51.1312C51.4645 56.0656 51.7596 56.1339 52.0164 56.2705C52.2733 56.4125 52.4727 56.6093 52.6148 56.8606C52.7569 57.1175 52.8279 57.4098 52.8279 57.7377C52.8279 58.1147 52.7295 58.4344 52.5328 58.6967C52.3416 58.9645 52.0738 59.1503 51.7295 59.2541C51.7186 59.2541 51.7104 59.2595 51.705 59.2705C51.6995 59.2814 51.6995 59.2923 51.705 59.3033L52.8607 61.6885C52.8716 61.7104 52.8771 61.7268 52.8771 61.7377C52.8771 61.7814 52.847 61.8033 52.7869 61.8033H52ZM49.7705 56.8852C49.7432 56.8852 49.7295 56.8989 49.7295 56.9262V58.5574C49.7295 58.5847 49.7432 58.5983 49.7705 58.5983H51C51.2623 58.5983 51.4754 58.5191 51.6394 58.3606C51.7978 58.2076 51.8771 58.0027 51.8771 57.7459C51.8771 57.489 51.7978 57.2814 51.6394 57.1229C51.4754 56.9645 51.2623 56.8852 51 56.8852H49.7705Z" fill="#242530"/>
<path d="M27.8935 76.6066C27.8771 76.6229 27.8716 76.6393 27.8771 76.6557C27.888 76.6721 27.9044 76.6803 27.9262 76.6803H31.1476C31.1858 76.6803 31.2186 76.694 31.2459 76.7213C31.2787 76.7486 31.2951 76.7814 31.2951 76.8197V77.9754C31.2951 78.0137 31.2787 78.0464 31.2459 78.0738C31.2186 78.1011 31.1858 78.1148 31.1476 78.1148H25.8033C25.7596 78.1148 25.7241 78.1011 25.6967 78.0738C25.6694 78.0464 25.6557 78.0137 25.6557 77.9754V76.877C25.6557 76.806 25.6803 76.7459 25.7295 76.6967C26.1175 76.3197 26.5137 75.9071 26.918 75.459C27.3224 75.0109 27.5765 74.7322 27.6803 74.6229C27.8989 74.3607 28.123 74.1093 28.3525 73.8689C29.0738 73.071 29.4344 72.4781 29.4344 72.0902C29.4344 71.8115 29.3361 71.582 29.1394 71.4016C28.9426 71.2268 28.6858 71.1393 28.3689 71.1393C28.0519 71.1393 27.7951 71.2268 27.5984 71.4016C27.3962 71.582 27.2951 71.8197 27.2951 72.1148V72.4098C27.2951 72.4481 27.2814 72.4809 27.2541 72.5082C27.2268 72.5355 27.194 72.5492 27.1557 72.5492H25.7541C25.7159 72.5492 25.6831 72.5355 25.6557 72.5082C25.623 72.4809 25.6066 72.4481 25.6066 72.4098V71.8525C25.6339 71.4262 25.7705 71.0464 26.0164 70.7131C26.2623 70.3852 26.5874 70.1339 26.9918 69.959C27.4016 69.7841 27.8607 69.6967 28.3689 69.6967C28.9317 69.6967 29.4208 69.8033 29.8361 70.0164C30.2514 70.224 30.571 70.5055 30.7951 70.8606C31.0246 71.2213 31.1394 71.6175 31.1394 72.0492C31.1394 72.3825 31.0547 72.724 30.8853 73.0738C30.7213 73.4235 30.4727 73.8005 30.1394 74.2049C29.8935 74.5109 29.6284 74.8169 29.3443 75.1229C29.0601 75.4235 28.6366 75.8579 28.0738 76.4262L27.8935 76.6066ZM35.1557 78.2459C34.2814 78.2459 33.5929 78.0027 33.0902 77.5164C32.582 77.0301 32.3279 76.3661 32.3279 75.5246V72.3852C32.3279 71.5601 32.582 70.9071 33.0902 70.4262C33.5929 69.9399 34.2814 69.6967 35.1557 69.6967C36.0246 69.6967 36.7159 69.9399 37.2295 70.4262C37.7377 70.9071 37.9918 71.5601 37.9918 72.3852V75.5246C37.9918 76.3661 37.7377 77.0301 37.2295 77.5164C36.7159 78.0027 36.0246 78.2459 35.1557 78.2459ZM35.1557 76.8115C35.5109 76.8115 35.7924 76.7022 36 76.4836C36.2131 76.265 36.3197 75.9727 36.3197 75.6066V72.3361C36.3197 71.9754 36.2131 71.6858 36 71.4672C35.7924 71.2486 35.5109 71.1393 35.1557 71.1393C34.806 71.1393 34.5273 71.2486 34.3197 71.4672C34.1066 71.6858 34 71.9754 34 72.3361V75.6066C34 75.9727 34.1066 76.265 34.3197 76.4836C34.5273 76.7022 34.806 76.8115 35.1557 76.8115ZM41.3197 76.6066C41.3033 76.6229 41.3006 76.6393 41.3115 76.6557C41.317 76.6721 41.3333 76.6803 41.3607 76.6803H44.582C44.6202 76.6803 44.653 76.694 44.6803 76.7213C44.7077 76.7486 44.7213 76.7814 44.7213 76.8197V77.9754C44.7213 78.0137 44.7077 78.0464 44.6803 78.0738C44.653 78.1011 44.6202 78.1148 44.582 78.1148H39.2295C39.1913 78.1148 39.1585 78.1011 39.1312 78.0738C39.1038 78.0464 39.0902 78.0137 39.0902 77.9754V76.877C39.0902 76.806 39.112 76.7459 39.1557 76.6967C39.5492 76.3197 39.9454 75.9071 40.3443 75.459C40.7486 75.0109 41.0027 74.7322 41.1066 74.6229C41.3306 74.3607 41.5574 74.1093 41.7869 73.8689C42.5082 73.071 42.8689 72.4781 42.8689 72.0902C42.8689 71.8115 42.7705 71.582 42.5738 71.4016C42.3716 71.2268 42.112 71.1393 41.7951 71.1393C41.4782 71.1393 41.2213 71.2268 41.0246 71.4016C40.8279 71.582 40.7295 71.8197 40.7295 72.1148V72.4098C40.7295 72.4481 40.7159 72.4809 40.6885 72.5082C40.6612 72.5355 40.6257 72.5492 40.582 72.5492H39.1803C39.1421 72.5492 39.1093 72.5355 39.082 72.5082C39.0547 72.4809 39.041 72.4481 39.041 72.4098V71.8525C39.0629 71.4262 39.1967 71.0464 39.4426 70.7131C39.6885 70.3852 40.0164 70.1339 40.4262 69.959C40.8361 69.7841 41.2924 69.6967 41.7951 69.6967C42.3579 69.6967 42.847 69.8033 43.2623 70.0164C43.6831 70.224 44.0055 70.5055 44.2295 70.8606C44.4536 71.2213 44.5656 71.6175 44.5656 72.0492C44.5656 72.3825 44.4836 72.724 44.3197 73.0738C44.1503 73.4235 43.8989 73.8005 43.5656 74.2049C43.3197 74.5109 43.0547 74.8169 42.7705 75.1229C42.4863 75.4235 42.0629 75.8579 41.5 76.4262L41.3197 76.6066ZM50.7131 74.1475C50.8716 74.5082 50.9508 74.9262 50.9508 75.4016C50.9508 75.8333 50.8798 76.2295 50.7377 76.5902C50.5465 77.0984 50.2268 77.4945 49.7787 77.7787C49.3306 78.0683 48.8006 78.2131 48.1885 78.2131C47.5874 78.2131 47.0601 78.0628 46.6066 77.7623C46.153 77.4563 45.8251 77.0464 45.623 76.5328C45.5137 76.2268 45.4508 75.8934 45.4344 75.5328C45.4344 75.4399 45.4809 75.3934 45.5738 75.3934H46.9836C47.0765 75.3934 47.123 75.4399 47.123 75.5328C47.1558 75.7951 47.1995 75.9891 47.2541 76.1148C47.3251 76.3224 47.4426 76.4836 47.6066 76.5984C47.765 76.7131 47.9563 76.7705 48.1803 76.7705C48.623 76.7705 48.929 76.5765 49.0984 76.1885C49.2077 75.9535 49.2623 75.6776 49.2623 75.3607C49.2623 74.9836 49.2022 74.6776 49.082 74.4426C48.9017 74.071 48.5984 73.8852 48.1721 73.8852C48.0847 73.8852 47.9918 73.9098 47.8935 73.959C47.8006 74.0137 47.6858 74.0874 47.5492 74.1803C47.5164 74.2022 47.4864 74.2131 47.459 74.2131C47.4098 74.2131 47.3743 74.1913 47.3525 74.1475L46.6476 73.1557C46.6312 73.1339 46.623 73.1066 46.623 73.0738C46.623 73.0246 46.6394 72.9863 46.6721 72.959L48.5574 71.3033C48.5738 71.2869 48.582 71.2705 48.582 71.2541C48.5765 71.2377 48.5629 71.2295 48.541 71.2295H45.7459C45.7077 71.2295 45.6721 71.2158 45.6394 71.1885C45.612 71.1612 45.5984 71.1284 45.5984 71.0902V69.9344C45.5984 69.8962 45.612 69.8634 45.6394 69.8361C45.6721 69.8087 45.7077 69.7951 45.7459 69.7951H50.6967C50.7404 69.7951 50.776 69.8087 50.8033 69.8361C50.8306 69.8634 50.8443 69.8962 50.8443 69.9344V71.2459C50.8443 71.306 50.817 71.3661 50.7623 71.4262L49.2049 72.8525C49.1885 72.8688 49.1831 72.8825 49.1885 72.8934C49.1885 72.9098 49.2049 72.918 49.2377 72.918C49.9262 73.0546 50.418 73.4645 50.7131 74.1475Z" fill="#252530"/>
<g clip-path="url(#clip0_4206_9285)">
<path d="M98.6885 73.6885L131.066 90.1639L162.213 73.6885V9.2623H98.6885V73.6885Z" fill="white"/>
<path d="M162.869 9.50821L98.0328 74.8361L131.639 91.4754L162.869 75.4918V9.50821Z" fill="#F2F3F2"/>
<path d="M96.5574 30.7377V75.082L97.7049 75.6557L130.082 92.1311L131.066 92.6229L132.049 92.1311L163.279 75.6557L164.426 75.082V7.13113H96.5574V30.7377ZM98.6885 73.8524V9.26228H162.295V73.8524L131.066 90.3279L98.6885 73.8524Z" fill="#DCDEDC"/>
<path d="M130.492 10.3279C130.82 10.3279 131.148 10.3279 131.475 10.4098L130.492 12.2951C129.016 12.2131 127.705 13.3606 127.623 14.8361C127.541 16.3115 128.689 17.6229 130.164 17.7049H130.492C131.148 17.7049 131.803 17.459 132.295 17.0492L133.361 18.8524C132.541 19.4262 131.557 19.7541 130.492 19.7541C127.869 19.8361 125.656 17.8688 125.574 15.2459C125.492 12.6229 127.459 10.4098 130.082 10.3279H130.492ZM133.852 14.3442L135.082 16.3934L133.852 18.3606L132.705 16.3934H130.328L131.557 14.3442H133.852ZM131.885 13.6065C131.885 13.2787 131.967 12.9508 132.131 12.7049C132.295 12.459 132.623 12.2131 132.869 12.0492L133.033 11.9672C133.361 11.8033 133.443 11.7213 133.443 11.5574C133.443 11.3934 133.197 11.2295 133.033 11.2295C132.705 11.2295 132.459 11.3934 132.295 11.7213L131.885 11.3115C131.967 11.1475 132.131 10.9836 132.295 10.8197C132.541 10.6557 132.787 10.6557 133.033 10.6557C133.279 10.6557 133.607 10.7377 133.771 10.9016C133.934 11.0656 134.098 11.3115 134.098 11.5574C134.098 11.9672 133.852 12.2951 133.361 12.459L133.115 12.6229C132.869 12.7869 132.705 12.8688 132.623 13.1147H134.098V13.6885L131.885 13.6065ZM130.492 23.8524L138.279 19.4262V7.13113H122.623V19.3442L130.492 23.8524ZM165.984 52.8688H95L92.3771 58.6065L95 64.3442H165.984L168.525 58.6065L165.984 52.8688Z" fill="#FF492C"/>
<path d="M107.697 49.1803C107.648 49.1803 107.607 49.164 107.574 49.1312C107.541 49.0929 107.525 49.0492 107.525 49V39.0328C107.525 38.9836 107.541 38.9399 107.574 38.9017C107.607 38.8689 107.648 38.8525 107.697 38.8525H109.426C109.475 38.8525 109.516 38.8689 109.549 38.9017C109.587 38.9399 109.607 38.9836 109.607 39.0328V47.3197C109.607 47.3689 109.631 47.3935 109.68 47.3935H114.5C114.549 47.3935 114.593 47.4099 114.631 47.4426C114.664 47.4809 114.68 47.5246 114.68 47.5738V49C114.68 49.0492 114.664 49.0929 114.631 49.1312C114.593 49.164 114.549 49.1803 114.5 49.1803H107.697ZM122.541 44.6066C122.601 44.9782 122.62 45.3962 122.598 45.8607C122.593 45.9809 122.53 46.041 122.41 46.041H117.852C117.792 46.041 117.773 46.0656 117.795 46.1148C117.822 46.3115 117.874 46.5082 117.951 46.7049C118.208 47.2514 118.73 47.5246 119.516 47.5246C120.145 47.5191 120.642 47.265 121.008 46.7623C121.046 46.7022 121.09 46.6721 121.139 46.6721C121.172 46.6721 121.208 46.6913 121.246 46.7295L122.303 47.7787C122.352 47.8279 122.377 47.8716 122.377 47.9099C122.377 47.9317 122.358 47.9727 122.32 48.0328C121.997 48.4317 121.579 48.7432 121.066 48.9672C120.557 49.1858 119.997 49.2951 119.385 49.2951C118.538 49.2951 117.822 49.1038 117.238 48.7213C116.653 48.3388 116.232 47.8033 115.975 47.1148C115.768 46.623 115.664 45.9782 115.664 45.1803C115.664 44.6394 115.738 44.164 115.885 43.7541C116.115 43.0547 116.511 42.4973 117.074 42.082C117.642 41.6721 118.314 41.4672 119.09 41.4672C120.074 41.4672 120.863 41.7514 121.459 42.3197C122.055 42.888 122.415 43.6503 122.541 44.6066ZM119.107 43.2623C118.484 43.2623 118.074 43.5519 117.877 44.1312C117.839 44.2623 117.806 44.4208 117.779 44.6066C117.779 44.6558 117.803 44.6803 117.852 44.6803H120.402C120.462 44.6803 120.481 44.6558 120.459 44.6066C120.41 44.3224 120.385 44.1858 120.385 44.1967C120.298 43.9017 120.145 43.6722 119.926 43.5082C119.702 43.3443 119.429 43.2623 119.107 43.2623ZM126.836 41.4754C127.475 41.4754 128.046 41.5874 128.549 41.8115C129.052 42.0301 129.443 42.3334 129.721 42.7213C130 43.1038 130.139 43.5301 130.139 44V49C130.139 49.0492 130.123 49.0929 130.09 49.1312C130.057 49.164 130.016 49.1803 129.967 49.1803H128.238C128.189 49.1803 128.148 49.164 128.115 49.1312C128.077 49.0929 128.057 49.0492 128.057 49V48.5164C128.057 48.4891 128.049 48.47 128.033 48.459C128.011 48.4481 127.992 48.4563 127.975 48.4836C127.56 49.0246 126.896 49.2951 125.984 49.2951C125.213 49.2951 124.593 49.1093 124.123 48.7377C123.648 48.3661 123.41 47.8142 123.41 47.082C123.41 46.3279 123.678 45.7405 124.213 45.3197C124.743 44.9044 125.5 44.6967 126.484 44.6967H127.984C128.033 44.6967 128.057 44.6721 128.057 44.623V44.2951C128.057 43.9727 127.959 43.7186 127.762 43.5328C127.566 43.3525 127.271 43.2623 126.877 43.2623C126.577 43.2623 126.325 43.317 126.123 43.4262C125.921 43.5355 125.79 43.6885 125.73 43.8853C125.702 43.9946 125.639 44.0437 125.541 44.0328L123.754 43.7951C123.634 43.7732 123.579 43.7295 123.59 43.664C123.628 43.2487 123.792 42.8743 124.082 42.541C124.372 42.2077 124.757 41.9481 125.238 41.7623C125.713 41.5711 126.246 41.4754 126.836 41.4754ZM126.541 47.7459C126.962 47.7459 127.32 47.6339 127.615 47.4099C127.91 47.1858 128.057 46.8962 128.057 46.541V46.0082C128.057 45.959 128.033 45.9344 127.984 45.9344H126.926C126.484 45.9344 126.137 46.0191 125.885 46.1885C125.634 46.3525 125.508 46.5874 125.508 46.8935C125.508 47.1612 125.601 47.3689 125.787 47.5164C125.973 47.6694 126.224 47.7459 126.541 47.7459ZM136.311 39.0328C136.311 38.9836 136.328 38.9399 136.361 38.9017C136.393 38.8689 136.434 38.8525 136.484 38.8525H138.213C138.262 38.8525 138.303 38.8689 138.336 38.9017C138.369 38.9399 138.385 38.9836 138.385 39.0328V49C138.385 49.0492 138.369 49.0929 138.336 49.1312C138.303 49.164 138.262 49.1803 138.213 49.1803H136.484C136.434 49.1803 136.393 49.164 136.361 49.1312C136.328 49.0929 136.311 49.0492 136.311 49V48.5164C136.311 48.4891 136.301 48.4727 136.279 48.4672C136.257 48.4618 136.238 48.4672 136.221 48.4836C135.806 49.0246 135.24 49.2951 134.525 49.2951C133.836 49.2951 133.243 49.1038 132.746 48.7213C132.249 48.3388 131.891 47.8142 131.672 47.1476C131.508 46.6339 131.426 46.0383 131.426 45.3607C131.426 44.6612 131.514 44.0519 131.689 43.5328C131.918 42.8989 132.276 42.3989 132.762 42.0328C133.249 41.6612 133.85 41.4754 134.566 41.4754C135.276 41.4754 135.828 41.7213 136.221 42.2131C136.238 42.2459 136.257 42.2568 136.279 42.2459C136.301 42.235 136.311 42.2159 136.311 42.1885V39.0328ZM136 46.8771C136.197 46.5164 136.295 46.0191 136.295 45.3853C136.295 44.7295 136.186 44.2131 135.967 43.8361C135.743 43.4536 135.415 43.2623 134.984 43.2623C134.519 43.2623 134.169 43.4536 133.934 43.8361C133.689 44.2241 133.566 44.7459 133.566 45.4017C133.566 45.9918 133.669 46.4836 133.877 46.8771C134.123 47.3033 134.486 47.5164 134.967 47.5164C135.41 47.5164 135.754 47.3033 136 46.8771ZM146.664 44.6066C146.724 44.9782 146.743 45.3962 146.721 45.8607C146.716 45.9809 146.653 46.041 146.533 46.041H141.975C141.915 46.041 141.896 46.0656 141.918 46.1148C141.945 46.3115 141.997 46.5082 142.074 46.7049C142.331 47.2514 142.852 47.5246 143.639 47.5246C144.268 47.5191 144.765 47.265 145.131 46.7623C145.169 46.7022 145.213 46.6721 145.262 46.6721C145.295 46.6721 145.331 46.6913 145.369 46.7295L146.426 47.7787C146.475 47.8279 146.5 47.8716 146.5 47.9099C146.5 47.9317 146.481 47.9727 146.443 48.0328C146.12 48.4317 145.702 48.7432 145.189 48.9672C144.68 49.1858 144.12 49.2951 143.508 49.2951C142.661 49.2951 141.945 49.1038 141.361 48.7213C140.776 48.3388 140.355 47.8033 140.098 47.1148C139.891 46.623 139.787 45.9782 139.787 45.1803C139.787 44.6394 139.861 44.164 140.008 43.7541C140.238 43.0547 140.634 42.4973 141.197 42.082C141.765 41.6721 142.437 41.4672 143.213 41.4672C144.197 41.4672 144.986 41.7514 145.582 42.3197C146.178 42.888 146.538 43.6503 146.664 44.6066ZM143.23 43.2623C142.607 43.2623 142.197 43.5519 142 44.1312C141.962 44.2623 141.929 44.4208 141.902 44.6066C141.902 44.6558 141.926 44.6803 141.975 44.6803H144.525C144.585 44.6803 144.604 44.6558 144.582 44.6066C144.533 44.3224 144.508 44.1858 144.508 44.1967C144.421 43.9017 144.268 43.6722 144.049 43.5082C143.825 43.3443 143.552 43.2623 143.23 43.2623ZM151.787 41.4918C152.142 41.4918 152.421 41.5601 152.623 41.6967C152.705 41.7405 152.735 41.8142 152.713 41.918L152.402 43.6066C152.396 43.7213 152.328 43.7541 152.197 43.7049C152.049 43.6558 151.877 43.6312 151.68 43.6312C151.604 43.6312 151.497 43.6421 151.361 43.664C151.005 43.6913 150.705 43.8197 150.459 44.0492C150.213 44.2842 150.09 44.5929 150.09 44.9754V49C150.09 49.0492 150.074 49.0929 150.041 49.1312C150.003 49.164 149.959 49.1803 149.91 49.1803H148.189C148.139 49.1803 148.096 49.164 148.057 49.1312C148.025 49.0929 148.008 49.0492 148.008 49V41.7705C148.008 41.7213 148.025 41.6803 148.057 41.6476C148.096 41.6148 148.139 41.5984 148.189 41.5984H149.91C149.959 41.5984 150.003 41.6148 150.041 41.6476C150.074 41.6803 150.09 41.7213 150.09 41.7705V42.3361C150.09 42.3634 150.098 42.3825 150.115 42.3935C150.137 42.4044 150.153 42.3989 150.164 42.3771C150.568 41.7869 151.109 41.4918 151.787 41.4918Z" fill="#252530"/>
<path d="M117.623 61.8033C117.563 61.8033 117.525 61.7759 117.508 61.7213L116.016 56.1721L116.008 56.1393C116.008 56.0901 116.038 56.0656 116.098 56.0656H116.902C116.962 56.0656 117 56.0929 117.016 56.1475L117.951 59.8852C117.956 59.9016 117.964 59.9098 117.975 59.9098C117.986 59.9098 117.995 59.9016 118 59.8852L118.893 56.1475C118.91 56.0929 118.945 56.0656 119 56.0656H119.787C119.847 56.0656 119.885 56.0929 119.902 56.1475L120.852 59.8934C120.858 59.9098 120.866 59.918 120.877 59.918C120.888 59.918 120.896 59.9098 120.902 59.8934L121.82 56.1475C121.836 56.0929 121.874 56.0656 121.934 56.0656H122.697C122.773 56.0656 122.803 56.1011 122.787 56.1721L121.369 61.7213C121.352 61.7759 121.314 61.8033 121.254 61.8033H120.492C120.432 61.8033 120.393 61.7759 120.377 61.7213L119.418 57.8115C119.413 57.7951 119.404 57.7841 119.393 57.7787C119.383 57.7787 119.374 57.7896 119.369 57.8115L118.451 61.7213C118.434 61.7759 118.399 61.8033 118.344 61.8033H117.623ZM123.697 61.8033C123.669 61.8033 123.645 61.7923 123.623 61.7705C123.607 61.7541 123.598 61.7322 123.598 61.7049V56.1639C123.598 56.1366 123.607 56.1147 123.623 56.0983C123.645 56.0765 123.669 56.0656 123.697 56.0656H124.451C124.478 56.0656 124.5 56.0765 124.516 56.0983C124.538 56.1147 124.549 56.1366 124.549 56.1639V61.7049C124.549 61.7322 124.538 61.7541 124.516 61.7705C124.5 61.7923 124.478 61.8033 124.451 61.8033H123.697ZM129.082 56.1639C129.082 56.1366 129.09 56.1147 129.107 56.0983C129.128 56.0765 129.153 56.0656 129.18 56.0656H129.934C129.962 56.0656 129.984 56.0765 130 56.0983C130.022 56.1147 130.033 56.1366 130.033 56.1639V61.7049C130.033 61.7322 130.022 61.7541 130 61.7705C129.984 61.7923 129.962 61.8033 129.934 61.8033H129.205C129.15 61.8033 129.112 61.7814 129.09 61.7377L126.73 57.8688C126.719 57.8524 126.708 57.8442 126.697 57.8442C126.686 57.8497 126.68 57.8634 126.68 57.8852L126.697 61.7049C126.697 61.7322 126.686 61.7541 126.664 61.7705C126.648 61.7923 126.626 61.8033 126.598 61.8033H125.844C125.817 61.8033 125.792 61.7923 125.771 61.7705C125.754 61.7541 125.746 61.7322 125.746 61.7049V56.1639C125.746 56.1366 125.754 56.1147 125.771 56.0983C125.792 56.0765 125.817 56.0656 125.844 56.0656H126.574C126.628 56.0656 126.667 56.0874 126.689 56.1311L129.041 60C129.052 60.0164 129.063 60.0218 129.074 60.0164C129.085 60.0164 129.09 60.0054 129.09 59.9836L129.082 56.1639ZM135 56.0656C135.027 56.0656 135.049 56.0765 135.066 56.0983C135.087 56.1147 135.098 56.1366 135.098 56.1639V56.7951C135.098 56.8224 135.087 56.8442 135.066 56.8606C135.049 56.8825 135.027 56.8934 135 56.8934H133.492C133.464 56.8934 133.451 56.9071 133.451 56.9344V61.7049C133.451 61.7322 133.443 61.7541 133.426 61.7705C133.404 61.7923 133.38 61.8033 133.352 61.8033H132.598C132.571 61.8033 132.549 61.7923 132.533 61.7705C132.511 61.7541 132.5 61.7322 132.5 61.7049V56.9344C132.5 56.9071 132.486 56.8934 132.459 56.8934H131.008C130.981 56.8934 130.956 56.8825 130.934 56.8606C130.918 56.8442 130.91 56.8224 130.91 56.7951V56.1639C130.91 56.1366 130.918 56.1147 130.934 56.0983C130.956 56.0765 130.981 56.0656 131.008 56.0656H135ZM139.861 56.7869C139.861 56.8142 139.85 56.836 139.828 56.8524C139.811 56.8743 139.79 56.8852 139.762 56.8852H136.967C136.94 56.8852 136.926 56.8989 136.926 56.9262V58.459C136.926 58.4863 136.94 58.5 136.967 58.5H138.844C138.872 58.5 138.896 58.5082 138.918 58.5246C138.934 58.5464 138.943 58.571 138.943 58.5983V59.2213C138.943 59.2486 138.934 59.2732 138.918 59.2951C138.896 59.3114 138.872 59.3197 138.844 59.3197H136.967C136.94 59.3197 136.926 59.3333 136.926 59.3606V60.9426C136.926 60.9699 136.94 60.9836 136.967 60.9836H139.762C139.79 60.9836 139.811 60.9945 139.828 61.0164C139.85 61.0328 139.861 61.0546 139.861 61.0819V61.7049C139.861 61.7322 139.85 61.7541 139.828 61.7705C139.811 61.7923 139.79 61.8033 139.762 61.8033H136.074C136.046 61.8033 136.022 61.7923 136 61.7705C135.984 61.7541 135.975 61.7322 135.975 61.7049V56.1639C135.975 56.1366 135.984 56.1147 136 56.0983C136.022 56.0765 136.046 56.0656 136.074 56.0656H139.762C139.79 56.0656 139.811 56.0765 139.828 56.0983C139.85 56.1147 139.861 56.1366 139.861 56.1639V56.7869ZM144.049 61.8033C143.995 61.8033 143.956 61.7787 143.934 61.7295L142.852 59.3688C142.842 59.347 142.825 59.336 142.803 59.336H141.82C141.792 59.336 141.779 59.3497 141.779 59.377V61.7049C141.779 61.7322 141.768 61.7541 141.746 61.7705C141.73 61.7923 141.708 61.8033 141.68 61.8033H140.926C140.899 61.8033 140.874 61.7923 140.852 61.7705C140.836 61.7541 140.828 61.7322 140.828 61.7049V56.1639C140.828 56.1366 140.836 56.1147 140.852 56.0983C140.874 56.0765 140.899 56.0656 140.926 56.0656H143.18C143.514 56.0656 143.809 56.1339 144.066 56.2705C144.322 56.4125 144.522 56.6093 144.664 56.8606C144.806 57.1175 144.877 57.4098 144.877 57.7377C144.877 58.1147 144.779 58.4344 144.582 58.6967C144.391 58.9645 144.123 59.1503 143.779 59.2541C143.768 59.2541 143.76 59.2595 143.754 59.2705C143.749 59.2814 143.749 59.2923 143.754 59.3033L144.91 61.6885C144.921 61.7104 144.926 61.7268 144.926 61.7377C144.926 61.7814 144.896 61.8033 144.836 61.8033H144.049ZM141.82 56.8852C141.792 56.8852 141.779 56.8989 141.779 56.9262V58.5574C141.779 58.5847 141.792 58.5983 141.82 58.5983H143.049C143.311 58.5983 143.525 58.5191 143.689 58.3606C143.847 58.2076 143.926 58.0027 143.926 57.7459C143.926 57.489 143.847 57.2814 143.689 57.1229C143.525 56.9645 143.311 56.8852 143.049 56.8852H141.82Z" fill="white"/>
<path d="M119.943 76.6066C119.926 76.6229 119.921 76.6393 119.926 76.6557C119.937 76.6721 119.954 76.6803 119.975 76.6803H123.197C123.235 76.6803 123.268 76.694 123.295 76.7213C123.328 76.7486 123.344 76.7814 123.344 76.8197V77.9754C123.344 78.0137 123.328 78.0464 123.295 78.0738C123.268 78.1011 123.235 78.1148 123.197 78.1148H117.852C117.809 78.1148 117.773 78.1011 117.746 78.0738C117.719 78.0464 117.705 78.0137 117.705 77.9754V76.877C117.705 76.806 117.73 76.7459 117.779 76.6967C118.167 76.3197 118.563 75.9071 118.967 75.459C119.372 75.0109 119.626 74.7322 119.73 74.6229C119.948 74.3607 120.172 74.1093 120.402 73.8689C121.123 73.071 121.484 72.4781 121.484 72.0902C121.484 71.8115 121.385 71.582 121.189 71.4016C120.992 71.2268 120.735 71.1393 120.418 71.1393C120.101 71.1393 119.844 71.2268 119.648 71.4016C119.445 71.582 119.344 71.8197 119.344 72.1148V72.4098C119.344 72.4481 119.331 72.4809 119.303 72.5082C119.276 72.5355 119.243 72.5492 119.205 72.5492H117.803C117.765 72.5492 117.732 72.5355 117.705 72.5082C117.672 72.4809 117.656 72.4481 117.656 72.4098V71.8525C117.683 71.4262 117.82 71.0464 118.066 70.7131C118.311 70.3852 118.637 70.1339 119.041 69.959C119.451 69.7841 119.91 69.6967 120.418 69.6967C120.981 69.6967 121.47 69.8033 121.885 70.0164C122.301 70.224 122.62 70.5055 122.844 70.8606C123.074 71.2213 123.189 71.6175 123.189 72.0492C123.189 72.3825 123.104 72.724 122.934 73.0738C122.771 73.4235 122.522 73.8005 122.189 74.2049C121.943 74.5109 121.678 74.8169 121.393 75.1229C121.109 75.4235 120.686 75.8579 120.123 76.4262L119.943 76.6066ZM127.205 78.2459C126.331 78.2459 125.642 78.0027 125.139 77.5164C124.631 77.0301 124.377 76.3661 124.377 75.5246V72.3852C124.377 71.5601 124.631 70.9071 125.139 70.4262C125.642 69.9399 126.331 69.6967 127.205 69.6967C128.074 69.6967 128.765 69.9399 129.279 70.4262C129.787 70.9071 130.041 71.5601 130.041 72.3852V75.5246C130.041 76.3661 129.787 77.0301 129.279 77.5164C128.765 78.0027 128.074 78.2459 127.205 78.2459ZM127.205 76.8115C127.56 76.8115 127.842 76.7022 128.049 76.4836C128.262 76.265 128.369 75.9727 128.369 75.6066V72.3361C128.369 71.9754 128.262 71.6858 128.049 71.4672C127.842 71.2486 127.56 71.1393 127.205 71.1393C126.855 71.1393 126.577 71.2486 126.369 71.4672C126.156 71.6858 126.049 71.9754 126.049 72.3361V75.6066C126.049 75.9727 126.156 76.265 126.369 76.4836C126.577 76.7022 126.855 76.8115 127.205 76.8115ZM133.369 76.6066C133.352 76.6229 133.35 76.6393 133.361 76.6557C133.366 76.6721 133.383 76.6803 133.41 76.6803H136.631C136.669 76.6803 136.702 76.694 136.73 76.7213C136.757 76.7486 136.771 76.7814 136.771 76.8197V77.9754C136.771 78.0137 136.757 78.0464 136.73 78.0738C136.702 78.1011 136.669 78.1148 136.631 78.1148H131.279C131.24 78.1148 131.208 78.1011 131.18 78.0738C131.153 78.0464 131.139 78.0137 131.139 77.9754V76.877C131.139 76.806 131.161 76.7459 131.205 76.6967C131.598 76.3197 131.995 75.9071 132.393 75.459C132.798 75.0109 133.052 74.7322 133.156 74.6229C133.38 74.3607 133.607 74.1093 133.836 73.8689C134.557 73.071 134.918 72.4781 134.918 72.0902C134.918 71.8115 134.82 71.582 134.623 71.4016C134.421 71.2268 134.161 71.1393 133.844 71.1393C133.527 71.1393 133.271 71.2268 133.074 71.4016C132.877 71.582 132.779 71.8197 132.779 72.1148V72.4098C132.779 72.4481 132.765 72.4809 132.738 72.5082C132.71 72.5355 132.675 72.5492 132.631 72.5492H131.23C131.191 72.5492 131.158 72.5355 131.131 72.5082C131.104 72.4809 131.09 72.4481 131.09 72.4098V71.8525C131.112 71.4262 131.246 71.0464 131.492 70.7131C131.738 70.3852 132.066 70.1339 132.475 69.959C132.885 69.7841 133.342 69.6967 133.844 69.6967C134.407 69.6967 134.896 69.8033 135.311 70.0164C135.732 70.224 136.055 70.5055 136.279 70.8606C136.503 71.2213 136.615 71.6175 136.615 72.0492C136.615 72.3825 136.533 72.724 136.369 73.0738C136.199 73.4235 135.948 73.8005 135.615 74.2049C135.369 74.5109 135.104 74.8169 134.82 75.1229C134.536 75.4235 134.112 75.8579 133.549 76.4262L133.369 76.6066ZM142.762 74.1475C142.921 74.5082 143 74.9262 143 75.4016C143 75.8333 142.929 76.2295 142.787 76.5902C142.596 77.0984 142.276 77.4945 141.828 77.7787C141.38 78.0683 140.85 78.2131 140.238 78.2131C139.637 78.2131 139.109 78.0628 138.656 77.7623C138.202 77.4563 137.874 77.0464 137.672 76.5328C137.563 76.2268 137.5 75.8934 137.484 75.5328C137.484 75.4399 137.53 75.3934 137.623 75.3934H139.033C139.126 75.3934 139.172 75.4399 139.172 75.5328C139.205 75.7951 139.249 75.9891 139.303 76.1148C139.374 76.3224 139.492 76.4836 139.656 76.5984C139.814 76.7131 140.005 76.7705 140.23 76.7705C140.672 76.7705 140.978 76.5765 141.148 76.1885C141.257 75.9535 141.311 75.6776 141.311 75.3607C141.311 74.9836 141.251 74.6776 141.131 74.4426C140.951 74.071 140.648 73.8852 140.221 73.8852C140.134 73.8852 140.041 73.9098 139.943 73.959C139.85 74.0137 139.735 74.0874 139.598 74.1803C139.566 74.2022 139.536 74.2131 139.508 74.2131C139.459 74.2131 139.424 74.1913 139.402 74.1475L138.697 73.1557C138.68 73.1339 138.672 73.1066 138.672 73.0738C138.672 73.0246 138.689 72.9863 138.721 72.959L140.607 71.3033C140.623 71.2869 140.631 71.2705 140.631 71.2541C140.626 71.2377 140.612 71.2295 140.59 71.2295H137.795C137.757 71.2295 137.721 71.2158 137.689 71.1885C137.661 71.1612 137.648 71.1284 137.648 71.0902V69.9344C137.648 69.8962 137.661 69.8634 137.689 69.8361C137.721 69.8087 137.757 69.7951 137.795 69.7951H142.746C142.79 69.7951 142.825 69.8087 142.852 69.8361C142.88 69.8634 142.893 69.8962 142.893 69.9344V71.2459C142.893 71.306 142.866 71.3661 142.812 71.4262L141.254 72.8525C141.238 72.8688 141.232 72.8825 141.238 72.8934C141.238 72.9098 141.254 72.918 141.287 72.918C141.975 73.0546 142.467 73.4645 142.762 74.1475Z" fill="#252530"/>
</g>
<g clip-path="url(#clip1_4206_9285)">
<path d="M190.738 73.6885L223.115 90.1639L254.262 73.6885V9.2623H190.738V73.6885Z" fill="white"/>
<path d="M254.918 9.50821L190.082 74.8361L223.689 91.4754L254.918 75.4918V9.50821Z" fill="#F2F3F2"/>
<path d="M188.607 30.7377V75.082L189.754 75.6557L222.131 92.1311L223.115 92.6229L224.098 92.1311L255.328 75.6557L256.475 75.082V7.13113H188.607V30.7377ZM190.738 73.8524V9.26228H254.344V73.8524L223.115 90.3279L190.738 73.8524Z" fill="#DCDEDC"/>
<path d="M222.541 10.3279C222.869 10.3279 223.197 10.3279 223.525 10.4098L222.541 12.2951C221.066 12.2131 219.754 13.3606 219.672 14.8361C219.59 16.3115 220.738 17.6229 222.213 17.7049H222.541C223.197 17.7049 223.852 17.459 224.344 17.0492L225.41 18.8524C224.59 19.4262 223.607 19.7541 222.541 19.7541C219.918 19.8361 217.705 17.8688 217.623 15.2459C217.541 12.6229 219.508 10.4098 222.131 10.3279H222.541ZM225.902 14.3442L227.131 16.3934L225.902 18.3606L224.754 16.3934H222.377L223.607 14.3442H225.902ZM223.934 13.6065C223.934 13.2787 224.016 12.9508 224.18 12.7049C224.344 12.459 224.672 12.2131 224.918 12.0492L225.082 11.9672C225.41 11.8033 225.492 11.7213 225.492 11.5574C225.492 11.3934 225.246 11.2295 225.082 11.2295C224.754 11.2295 224.508 11.3934 224.344 11.7213L223.934 11.3115C224.016 11.1475 224.18 10.9836 224.344 10.8197C224.59 10.6557 224.836 10.6557 225.082 10.6557C225.328 10.6557 225.656 10.7377 225.82 10.9016C225.984 11.0656 226.148 11.3115 226.148 11.5574C226.148 11.9672 225.902 12.2951 225.41 12.459L225.164 12.6229C224.918 12.7869 224.754 12.8688 224.672 13.1147H226.148V13.6885L223.934 13.6065ZM222.541 23.8524L230.328 19.4262V7.13113H214.672V19.3442L222.541 23.8524Z" fill="#FF492C"/>
<path d="M258.033 52.8688H187.049L184.426 58.6065L187.049 64.3442H258.033L260.574 58.6065L258.033 52.8688Z" fill="#2690CE"/>
<path d="M210 49.2787C209.344 49.2787 208.773 49.1749 208.287 48.9672C207.79 48.7541 207.41 48.4536 207.148 48.0656C206.88 47.6776 206.746 47.2268 206.746 46.7131V46.4426C206.746 46.3989 206.76 46.3634 206.787 46.3361C206.82 46.3088 206.855 46.2951 206.893 46.2951H208.295C208.333 46.2951 208.369 46.3088 208.402 46.3361C208.429 46.3634 208.443 46.3989 208.443 46.4426V46.623C208.443 46.9508 208.596 47.2268 208.902 47.4508C209.202 47.6803 209.612 47.7951 210.131 47.7951C210.563 47.7951 210.885 47.7022 211.098 47.5164C211.311 47.3306 211.418 47.1038 211.418 46.8361C211.418 46.6339 211.352 46.4672 211.221 46.3361C211.09 46.1995 210.913 46.0793 210.689 45.9754C210.459 45.8771 210.101 45.7377 209.615 45.5574C209.063 45.3661 208.596 45.1721 208.213 44.9754C207.836 44.7787 207.516 44.5109 207.254 44.1721C206.997 43.8333 206.869 43.4126 206.869 42.9099C206.869 42.418 206.997 41.9891 207.254 41.623C207.505 41.2514 207.855 40.9672 208.303 40.7705C208.757 40.5738 209.279 40.4754 209.869 40.4754C210.492 40.4754 211.046 40.5874 211.533 40.8115C212.019 41.0301 212.402 41.3388 212.68 41.7377C212.954 42.1312 213.09 42.5929 213.09 43.123V43.3033C213.09 43.347 213.076 43.3825 213.049 43.4099C213.016 43.4372 212.981 43.4508 212.943 43.4508H211.533C211.489 43.4508 211.454 43.4372 211.426 43.4099C211.393 43.3825 211.377 43.347 211.377 43.3033V43.2049C211.377 42.8607 211.238 42.5683 210.959 42.3279C210.675 42.0874 210.287 41.9672 209.795 41.9672C209.407 41.9672 209.107 42.0492 208.893 42.2131C208.675 42.3716 208.566 42.5956 208.566 42.8853C208.566 43.0929 208.628 43.265 208.754 43.4017C208.885 43.5437 209.074 43.6694 209.32 43.7787C209.571 43.888 209.959 44.0383 210.484 44.2295C211.068 44.4426 211.525 44.6312 211.852 44.7951C212.186 44.959 212.486 45.2022 212.754 45.5246C213.022 45.847 213.156 46.2678 213.156 46.7869C213.156 47.5574 212.872 48.164 212.303 48.6066C211.74 49.0547 210.973 49.2787 210 49.2787ZM219.852 45.3689C219.902 45.6803 219.918 46.0273 219.902 46.4099C219.891 46.5137 219.836 46.5656 219.738 46.5656H215.943C215.893 46.5656 215.877 46.5847 215.893 46.623C215.915 46.7869 215.959 46.9508 216.025 47.1148C216.238 47.5738 216.672 47.8033 217.328 47.8033C217.852 47.7978 218.268 47.5847 218.574 47.164C218.607 47.1148 218.642 47.0902 218.68 47.0902C218.708 47.0902 218.738 47.1066 218.77 47.1394L219.656 48.0082C219.694 48.0519 219.713 48.0902 219.713 48.123C219.713 48.1394 219.697 48.1721 219.664 48.2213C219.396 48.5601 219.049 48.8197 218.623 49C218.197 49.1858 217.73 49.2787 217.221 49.2787C216.516 49.2787 215.921 49.1202 215.434 48.8033C214.943 48.4809 214.59 48.0328 214.377 47.459C214.208 47.0492 214.123 46.5137 214.123 45.8525C214.123 45.3989 214.183 45 214.303 44.6558C214.495 44.0765 214.825 43.6148 215.295 43.2705C215.765 42.9262 216.325 42.7541 216.975 42.7541C217.795 42.7541 218.454 42.9918 218.951 43.4672C219.448 43.9426 219.749 44.5765 219.852 45.3689ZM216.984 44.2541C216.47 44.2541 216.131 44.4946 215.967 44.9754C215.934 45.0847 215.904 45.2159 215.877 45.3689C215.877 45.4071 215.899 45.4262 215.943 45.4262H218.066C218.115 45.4262 218.131 45.4071 218.115 45.3689C218.077 45.1339 218.057 45.0191 218.057 45.0246C217.981 44.7787 217.852 44.5874 217.672 44.4508C217.486 44.3197 217.257 44.2541 216.984 44.2541ZM224.451 44.1066C224.451 44.1448 224.437 44.1776 224.41 44.2049C224.377 44.2377 224.342 44.2541 224.303 44.2541H223.123C223.085 44.2541 223.066 44.2732 223.066 44.3115V46.9181C223.066 47.1858 223.12 47.388 223.23 47.5246C223.339 47.6558 223.516 47.7213 223.762 47.7213H224.164C224.208 47.7213 224.243 47.735 224.27 47.7623C224.298 47.7896 224.311 47.8252 224.311 47.8689V49.0328C224.311 49.1257 224.262 49.1776 224.164 49.1885C223.82 49.2049 223.574 49.2131 223.426 49.2131C222.749 49.2131 222.243 49.1011 221.91 48.8771C221.571 48.653 221.396 48.2295 221.385 47.6066V44.3115C221.385 44.2732 221.366 44.2541 221.328 44.2541H220.623C220.585 44.2541 220.552 44.2377 220.525 44.2049C220.492 44.1776 220.475 44.1448 220.475 44.1066V43.0082C220.475 42.97 220.492 42.9344 220.525 42.9017C220.552 42.8743 220.585 42.8607 220.623 42.8607H221.328C221.366 42.8607 221.385 42.8388 221.385 42.7951V41.3361C221.385 41.2978 221.402 41.2623 221.434 41.2295C221.462 41.2022 221.495 41.1885 221.533 41.1885H222.918C222.956 41.1885 222.989 41.2022 223.016 41.2295C223.049 41.2623 223.066 41.2978 223.066 41.3361V42.7951C223.066 42.8388 223.085 42.8607 223.123 42.8607H224.303C224.342 42.8607 224.377 42.8743 224.41 42.9017C224.437 42.9344 224.451 42.97 224.451 43.0082V44.1066ZM229.18 43.0082C229.18 42.97 229.197 42.9344 229.23 42.9017C229.257 42.8743 229.29 42.8607 229.328 42.8607H230.77C230.809 42.8607 230.844 42.8743 230.877 42.9017C230.904 42.9344 230.918 42.97 230.918 43.0082V49.0328C230.918 49.0765 230.904 49.112 230.877 49.1394C230.844 49.1667 230.809 49.1803 230.77 49.1803H229.328C229.29 49.1803 229.257 49.1667 229.23 49.1394C229.197 49.112 229.18 49.0765 229.18 49.0328V48.6148C229.18 48.5929 229.172 48.5793 229.156 48.5738C229.139 48.5683 229.123 48.5793 229.107 48.6066C228.779 49.0437 228.27 49.2623 227.582 49.2623C226.959 49.2623 226.448 49.0765 226.049 48.7049C225.645 48.3279 225.443 47.7978 225.443 47.1148V43.0082C225.443 42.97 225.459 42.9344 225.492 42.9017C225.519 42.8743 225.552 42.8607 225.59 42.8607H227.016C227.06 42.8607 227.096 42.8743 227.123 42.9017C227.15 42.9344 227.164 42.97 227.164 43.0082V46.6885C227.164 47.0164 227.254 47.2814 227.434 47.4836C227.609 47.6913 227.852 47.7951 228.164 47.7951C228.443 47.7951 228.672 47.7104 228.852 47.541C229.033 47.3716 229.142 47.153 229.18 46.8853V43.0082ZM237.836 44.5574C237.984 44.9727 238.057 45.4645 238.057 46.0328C238.057 46.6011 237.981 47.1148 237.828 47.5738C237.637 48.0984 237.339 48.5137 236.934 48.8197C236.53 49.1257 236.027 49.2787 235.426 49.2787C234.836 49.2787 234.377 49.0738 234.049 48.664C234.033 48.6421 234.016 48.6339 234 48.6394C233.984 48.6448 233.975 48.6612 233.975 48.6885V51.3197C233.975 51.3634 233.962 51.3989 233.934 51.4262C233.907 51.4536 233.872 51.4672 233.828 51.4672H232.393C232.35 51.4672 232.314 51.4536 232.287 51.4262C232.26 51.3989 232.246 51.3634 232.246 51.3197V43.0082C232.246 42.97 232.26 42.9344 232.287 42.9017C232.314 42.8743 232.35 42.8607 232.393 42.8607H233.828C233.872 42.8607 233.907 42.8743 233.934 42.9017C233.962 42.9344 233.975 42.97 233.975 43.0082V43.4099C233.975 43.4372 233.984 43.4536 234 43.459C234.016 43.4645 234.033 43.459 234.049 43.4426C234.393 42.9891 234.869 42.7623 235.475 42.7623C236.044 42.7623 236.536 42.9208 236.951 43.2377C237.361 43.5547 237.656 43.9946 237.836 44.5574ZM235.959 47.3115C236.161 46.9946 236.262 46.5601 236.262 46.0082C236.262 45.4946 236.178 45.0847 236.008 44.7787C235.817 44.429 235.514 44.2541 235.098 44.2541C234.721 44.2541 234.437 44.429 234.246 44.7787C234.076 45.0738 233.992 45.4891 233.992 46.0246C233.992 46.5711 234.082 46.9973 234.262 47.3033C234.448 47.6312 234.727 47.7951 235.098 47.7951C235.464 47.7951 235.751 47.6339 235.959 47.3115ZM208.582 29.6148C208.582 29.6585 208.566 29.694 208.533 29.7213C208.505 29.7486 208.473 29.7623 208.434 29.7623H204.393C204.355 29.7623 204.336 29.7842 204.336 29.8279V31.7295C204.336 31.7732 204.355 31.7951 204.393 31.7951H207.041C207.079 31.7951 207.115 31.8088 207.148 31.8361C207.175 31.8689 207.189 31.9044 207.189 31.9426V33.1312C207.189 33.1749 207.175 33.2104 207.148 33.2377C207.115 33.2705 207.079 33.2869 207.041 33.2869H204.393C204.355 33.2869 204.336 33.306 204.336 33.3443V35.3361C204.336 35.3798 204.355 35.4017 204.393 35.4017H208.434C208.473 35.4017 208.505 35.4153 208.533 35.4426C208.566 35.47 208.582 35.5027 208.582 35.541V36.7377C208.582 36.7814 208.566 36.817 208.533 36.8443C208.505 36.8716 208.473 36.8853 208.434 36.8853H202.746C202.708 36.8853 202.675 36.8716 202.648 36.8443C202.615 36.817 202.598 36.7814 202.598 36.7377V28.4262C202.598 28.388 202.615 28.3525 202.648 28.3197C202.675 28.2924 202.708 28.2787 202.746 28.2787H208.434C208.473 28.2787 208.505 28.2924 208.533 28.3197C208.566 28.3525 208.582 28.388 208.582 28.4262V29.6148ZM212.197 30.4672C212.727 30.4672 213.202 30.5601 213.623 30.7459C214.038 30.9317 214.363 31.1831 214.598 31.5C214.828 31.8224 214.943 32.1803 214.943 32.5738V36.7377C214.943 36.7814 214.929 36.817 214.902 36.8443C214.874 36.8716 214.839 36.8853 214.795 36.8853H213.361C213.317 36.8853 213.281 36.8716 213.254 36.8443C213.227 36.817 213.213 36.7814 213.213 36.7377V36.3361C213.213 36.3088 213.205 36.2924 213.189 36.2869C213.172 36.276 213.156 36.2842 213.139 36.3115C212.795 36.7596 212.24 36.9836 211.475 36.9836C210.836 36.9836 210.322 36.8279 209.934 36.5164C209.536 36.2049 209.336 35.7459 209.336 35.1394C209.336 34.5109 209.56 34.0219 210.008 33.6721C210.445 33.3224 211.074 33.1476 211.893 33.1476H213.156C213.194 33.1476 213.213 33.1284 213.213 33.0902V32.8197C213.213 32.5465 213.131 32.3333 212.967 32.1803C212.803 32.0328 212.557 31.959 212.23 31.959C211.978 31.959 211.768 32.0027 211.598 32.0902C211.429 32.1831 211.32 32.3115 211.27 32.4754C211.249 32.5629 211.194 32.6038 211.107 32.5984L209.623 32.4017C209.525 32.3853 209.478 32.347 209.484 32.2869C209.522 31.9426 209.661 31.6312 209.902 31.3525C210.142 31.0738 210.462 30.8579 210.861 30.7049C211.254 30.5465 211.699 30.4672 212.197 30.4672ZM211.943 35.6967C212.298 35.6967 212.598 35.6011 212.844 35.4099C213.09 35.2186 213.213 34.9754 213.213 34.6803V34.2377C213.213 34.1995 213.194 34.1803 213.156 34.1803H212.27C211.899 34.1803 211.609 34.2514 211.402 34.3935C211.194 34.5301 211.09 34.7268 211.09 34.9836C211.09 35.2022 211.167 35.3743 211.32 35.5C211.473 35.6312 211.68 35.6967 211.943 35.6967ZM218.689 36.9672C218.137 36.9672 217.656 36.8907 217.246 36.7377C216.836 36.5847 216.519 36.3689 216.295 36.0902C216.066 35.8115 215.951 35.4946 215.951 35.1394V35.0164C215.951 34.9782 215.967 34.9426 216 34.9099C216.027 34.8825 216.06 34.8689 216.098 34.8689H217.467C217.511 34.8689 217.546 34.8825 217.574 34.9099C217.601 34.9426 217.615 34.9782 217.615 35.0164V35.0246C217.615 35.2104 217.716 35.3661 217.918 35.4918C218.115 35.6175 218.366 35.6803 218.672 35.6803C218.951 35.6803 219.175 35.6257 219.344 35.5164C219.519 35.4017 219.607 35.265 219.607 35.1066C219.607 34.959 219.533 34.847 219.385 34.7705C219.238 34.6995 218.995 34.623 218.656 34.541C218.273 34.4426 217.97 34.347 217.746 34.2541C217.221 34.0738 216.803 33.8525 216.492 33.5902C216.18 33.3279 216.025 32.9508 216.025 32.459C216.025 31.8525 216.262 31.3716 216.738 31.0164C217.208 30.6612 217.833 30.4836 218.615 30.4836C219.139 30.4836 219.598 30.5656 219.992 30.7295C220.38 30.8989 220.683 31.1366 220.902 31.4426C221.12 31.7432 221.23 32.0874 221.23 32.4754C221.23 32.5137 221.216 32.5465 221.189 32.5738C221.161 32.6011 221.126 32.6148 221.082 32.6148H219.77C219.727 32.6148 219.691 32.6011 219.664 32.5738C219.637 32.5465 219.623 32.5137 219.623 32.4754C219.623 32.2951 219.53 32.1421 219.344 32.0164C219.158 31.8907 218.915 31.8279 218.615 31.8279C218.342 31.8279 218.117 31.8798 217.943 31.9836C217.773 32.082 217.689 32.2159 217.689 32.3853C217.689 32.5492 217.773 32.6721 217.943 32.7541C218.107 32.8361 218.388 32.9235 218.787 33.0164C218.874 33.0383 218.975 33.0629 219.09 33.0902C219.205 33.1175 219.328 33.153 219.459 33.1967C220.044 33.3716 220.503 33.5929 220.836 33.8607C221.169 34.1339 221.336 34.5273 221.336 35.041C221.336 35.6476 221.098 36.1202 220.623 36.459C220.142 36.7978 219.497 36.9672 218.689 36.9672ZM223.27 29.8525C222.992 29.8525 222.76 29.7596 222.574 29.5738C222.393 29.3935 222.303 29.164 222.303 28.8853C222.303 28.5956 222.393 28.3607 222.574 28.1803C222.754 28 222.986 27.9099 223.27 27.9099C223.56 27.9099 223.792 28 223.967 28.1803C224.153 28.3607 224.246 28.5956 224.246 28.8853C224.246 29.164 224.153 29.3935 223.967 29.5738C223.781 29.7596 223.549 29.8525 223.27 29.8525ZM222.533 36.8853C222.495 36.8853 222.459 36.8716 222.426 36.8443C222.399 36.817 222.385 36.7814 222.385 36.7377V30.7049C222.385 30.6612 222.399 30.6257 222.426 30.5984C222.459 30.5711 222.495 30.5574 222.533 30.5574H223.967C224.011 30.5574 224.046 30.5711 224.074 30.5984C224.101 30.6257 224.115 30.6612 224.115 30.7049V36.7377C224.115 36.7814 224.101 36.817 224.074 36.8443C224.046 36.8716 224.011 36.8853 223.967 36.8853H222.533ZM231.066 33.0738C231.115 33.3853 231.131 33.7323 231.115 34.1148C231.109 34.2186 231.057 34.2705 230.959 34.2705H227.156C227.107 34.2705 227.09 34.2896 227.107 34.3279C227.134 34.4918 227.18 34.6558 227.246 34.8197C227.459 35.2787 227.891 35.5082 228.541 35.5082C229.066 35.5027 229.481 35.2896 229.787 34.8689C229.82 34.8197 229.858 34.7951 229.902 34.7951C229.923 34.7951 229.951 34.8115 229.984 34.8443L230.869 35.7131C230.913 35.7568 230.934 35.7951 230.934 35.8279C230.934 35.8443 230.915 35.8771 230.877 35.9262C230.609 36.265 230.262 36.5246 229.836 36.7049C229.41 36.8907 228.943 36.9836 228.434 36.9836C227.73 36.9836 227.134 36.8252 226.648 36.5082C226.161 36.1858 225.809 35.7377 225.59 35.164C225.421 34.7541 225.336 34.2186 225.336 33.5574C225.336 33.1038 225.399 32.7049 225.525 32.3607C225.71 31.7814 226.038 31.3197 226.508 30.9754C226.984 30.6312 227.544 30.459 228.189 30.459C229.008 30.459 229.667 30.6967 230.164 31.1721C230.661 31.6476 230.962 32.2814 231.066 33.0738ZM228.197 31.959C227.683 31.959 227.344 32.1995 227.18 32.6803C227.148 32.7896 227.12 32.9208 227.098 33.0738C227.098 33.112 227.117 33.1312 227.156 33.1312H229.287C229.331 33.1312 229.344 33.112 229.328 33.0738C229.29 32.8388 229.27 32.7241 229.27 32.7295C229.194 32.4836 229.066 32.2924 228.885 32.1558C228.699 32.0246 228.47 31.959 228.197 31.959ZM234.623 36.9672C234.071 36.9672 233.59 36.8907 233.18 36.7377C232.77 36.5847 232.454 36.3689 232.23 36.0902C232.005 35.8115 231.893 35.4946 231.893 35.1394V35.0164C231.893 34.9782 231.907 34.9426 231.934 34.9099C231.962 34.8825 231.997 34.8689 232.041 34.8689H233.402C233.445 34.8689 233.481 34.8825 233.508 34.9099C233.536 34.9426 233.549 34.9782 233.549 35.0164V35.0246C233.549 35.2104 233.65 35.3661 233.852 35.4918C234.055 35.6175 234.306 35.6803 234.607 35.6803C234.885 35.6803 235.112 35.6257 235.287 35.5164C235.456 35.4017 235.541 35.265 235.541 35.1066C235.541 34.959 235.467 34.847 235.32 34.7705C235.172 34.6995 234.932 34.623 234.598 34.541C234.21 34.4426 233.907 34.347 233.689 34.2541C233.164 34.0738 232.746 33.8525 232.434 33.5902C232.123 33.3279 231.967 32.9508 231.967 32.459C231.967 31.8525 232.202 31.3716 232.672 31.0164C233.142 30.6612 233.768 30.4836 234.549 30.4836C235.074 30.4836 235.533 30.5656 235.926 30.7295C236.32 30.8989 236.623 31.1366 236.836 31.4426C237.055 31.7432 237.164 32.0874 237.164 32.4754C237.164 32.5137 237.15 32.5465 237.123 32.5738C237.096 32.6011 237.06 32.6148 237.016 32.6148H235.705C235.661 32.6148 235.626 32.6011 235.598 32.5738C235.571 32.5465 235.557 32.5137 235.557 32.4754C235.557 32.2951 235.464 32.1421 235.279 32.0164C235.093 31.8907 234.85 31.8279 234.549 31.8279C234.276 31.8279 234.055 31.8798 233.885 31.9836C233.71 32.082 233.623 32.2159 233.623 32.3853C233.623 32.5492 233.708 32.6721 233.877 32.7541C234.046 32.8361 234.328 32.9235 234.721 33.0164C234.809 33.0383 234.91 33.0629 235.025 33.0902C235.139 33.1175 235.262 33.153 235.393 33.1967C235.978 33.3716 236.437 33.5929 236.77 33.8607C237.109 34.1339 237.279 34.5273 237.279 35.041C237.279 35.6476 237.038 36.1202 236.557 36.459C236.076 36.7978 235.432 36.9672 234.623 36.9672ZM241.885 31.8115C241.885 31.8497 241.872 31.8825 241.844 31.9099C241.817 31.9426 241.781 31.959 241.738 31.959H240.557C240.519 31.959 240.5 31.9782 240.5 32.0164V34.623C240.5 34.8907 240.555 35.0929 240.664 35.2295C240.773 35.3607 240.951 35.4262 241.197 35.4262H241.607C241.645 35.4262 241.678 35.4399 241.705 35.4672C241.738 35.4946 241.754 35.5301 241.754 35.5738V36.7377C241.754 36.8306 241.705 36.8825 241.607 36.8935C241.262 36.9099 241.016 36.918 240.869 36.918C240.186 36.918 239.678 36.806 239.344 36.582C239.005 36.3579 238.833 35.9344 238.828 35.3115V32.0164C238.828 31.9782 238.806 31.959 238.762 31.959H238.066C238.022 31.959 237.986 31.9426 237.959 31.9099C237.932 31.8825 237.918 31.8497 237.918 31.8115V30.7131C237.918 30.6749 237.932 30.6394 237.959 30.6066C237.986 30.5793 238.022 30.5656 238.066 30.5656H238.762C238.806 30.5656 238.828 30.5437 238.828 30.5V29.041C238.828 29.0027 238.842 28.9672 238.869 28.9344C238.896 28.9071 238.932 28.8935 238.975 28.8935H240.352C240.391 28.8935 240.423 28.9071 240.451 28.9344C240.484 28.9672 240.5 29.0027 240.5 29.041V30.5C240.5 30.5437 240.519 30.5656 240.557 30.5656H241.738C241.781 30.5656 241.817 30.5793 241.844 30.6066C241.872 30.6394 241.885 30.6749 241.885 30.7131V31.8115Z" fill="#252530"/>
<path d="M206.254 56.1312C206.281 56.0875 206.32 56.0656 206.369 56.0656H207.123C207.15 56.0656 207.172 56.0765 207.189 56.0984C207.21 56.1148 207.221 56.1366 207.221 56.164V61.7049C207.221 61.7323 207.21 61.7541 207.189 61.7705C207.172 61.7924 207.15 61.8033 207.123 61.8033H206.369C206.342 61.8033 206.317 61.7924 206.295 61.7705C206.279 61.7541 206.27 61.7323 206.27 61.7049V57.7951C206.27 57.7787 206.265 57.7678 206.254 57.7623C206.238 57.7569 206.227 57.7623 206.221 57.7787L205.197 59.3525C205.169 59.3962 205.131 59.4181 205.082 59.4181H204.705C204.656 59.4181 204.617 59.3962 204.59 59.3525L203.557 57.7869C203.552 57.7705 203.544 57.7651 203.533 57.7705C203.516 57.776 203.508 57.7869 203.508 57.8033V61.7049C203.508 61.7323 203.497 61.7541 203.475 61.7705C203.459 61.7924 203.437 61.8033 203.41 61.8033H202.656C202.628 61.8033 202.607 61.7924 202.59 61.7705C202.568 61.7541 202.557 61.7323 202.557 61.7049V56.164C202.557 56.1366 202.568 56.1148 202.59 56.0984C202.607 56.0765 202.628 56.0656 202.656 56.0656H203.41C203.459 56.0656 203.497 56.0875 203.525 56.1312L204.861 58.1558C204.872 58.1667 204.883 58.1722 204.893 58.1722C204.904 58.1722 204.913 58.1667 204.918 58.1558L206.254 56.1312ZM208.869 57.041C208.699 57.041 208.56 56.9864 208.451 56.8771C208.342 56.7678 208.287 56.6284 208.287 56.459C208.287 56.2896 208.342 56.1503 208.451 56.041C208.56 55.9317 208.699 55.8771 208.869 55.8771C209.038 55.8771 209.178 55.9317 209.287 56.041C209.396 56.1503 209.451 56.2896 209.451 56.459C209.451 56.6284 209.396 56.7678 209.287 56.8771C209.178 56.9864 209.038 57.041 208.869 57.041ZM208.475 61.8033C208.448 61.8033 208.426 61.7924 208.41 61.7705C208.388 61.7541 208.377 61.7323 208.377 61.7049V57.7049C208.377 57.6776 208.388 57.6558 208.41 57.6394C208.426 57.6175 208.448 57.6066 208.475 57.6066H209.23C209.257 57.6066 209.281 57.6175 209.303 57.6394C209.32 57.6558 209.328 57.6776 209.328 57.7049V61.7049C209.328 61.7323 209.32 61.7541 209.303 61.7705C209.281 61.7924 209.257 61.8033 209.23 61.8033H208.475ZM213.016 56.164C213.016 56.1366 213.027 56.1148 213.049 56.0984C213.066 56.0765 213.087 56.0656 213.115 56.0656H213.869C213.896 56.0656 213.921 56.0765 213.943 56.0984C213.959 56.1148 213.967 56.1366 213.967 56.164V61.7049C213.967 61.7323 213.959 61.7541 213.943 61.7705C213.921 61.7924 213.896 61.8033 213.869 61.8033H213.115C213.087 61.8033 213.066 61.7924 213.049 61.7705C213.027 61.7541 213.016 61.7323 213.016 61.7049V61.459C213.016 61.4427 213.011 61.4317 213 61.4263C212.989 61.4208 212.978 61.4263 212.967 61.4426C212.727 61.7268 212.413 61.8689 212.025 61.8689C211.637 61.8689 211.309 61.7678 211.041 61.5656C210.773 61.3634 210.579 61.082 210.459 60.7213C210.361 60.4153 210.311 60.0738 210.311 59.6968C210.311 59.3088 210.358 58.9754 210.451 58.6967C210.571 58.3361 210.765 58.0547 211.033 57.8525C211.301 57.6503 211.637 57.5492 212.041 57.5492C212.418 57.5492 212.727 57.6858 212.967 57.959C212.978 57.97 212.989 57.9754 213 57.9754C213.011 57.97 213.016 57.959 213.016 57.9427V56.164ZM212.82 60.6558C212.945 60.4317 213.008 60.1148 213.008 59.7049C213.008 59.2787 212.94 58.9536 212.803 58.7295C212.656 58.4891 212.448 58.3689 212.18 58.3689C211.902 58.3689 211.683 58.4836 211.525 58.7131C211.361 58.9536 211.279 59.2869 211.279 59.7131C211.279 60.0957 211.344 60.4099 211.475 60.6558C211.628 60.9181 211.861 61.0492 212.172 61.0492C212.451 61.0492 212.667 60.9181 212.82 60.6558ZM214.852 59.7459C214.825 59.7459 214.803 59.7377 214.787 59.7213C214.765 59.6995 214.754 59.6749 214.754 59.6476V59.0246C214.754 58.9973 214.765 58.9727 214.787 58.9508C214.803 58.9345 214.825 58.9263 214.852 58.9263H217.434C217.462 58.9263 217.484 58.9345 217.5 58.9508C217.522 58.9727 217.533 58.9973 217.533 59.0246V59.6476C217.533 59.6749 217.522 59.6995 217.5 59.7213C217.484 59.7377 217.462 59.7459 217.434 59.7459H214.852ZM222.098 56.1312C222.126 56.0875 222.164 56.0656 222.213 56.0656H222.967C222.995 56.0656 223.019 56.0765 223.041 56.0984C223.057 56.1148 223.066 56.1366 223.066 56.164V61.7049C223.066 61.7323 223.057 61.7541 223.041 61.7705C223.019 61.7924 222.995 61.8033 222.967 61.8033H222.213C222.186 61.8033 222.164 61.7924 222.148 61.7705C222.126 61.7541 222.115 61.7323 222.115 61.7049V57.7951C222.115 57.7787 222.109 57.7678 222.098 57.7623C222.082 57.7569 222.071 57.7623 222.066 57.7787L221.041 59.3525C221.014 59.3962 220.975 59.4181 220.926 59.4181H220.549C220.5 59.4181 220.462 59.3962 220.434 59.3525L219.402 57.7869C219.396 57.7705 219.388 57.7651 219.377 57.7705C219.361 57.776 219.352 57.7869 219.352 57.8033V61.7049C219.352 61.7323 219.344 61.7541 219.328 61.7705C219.306 61.7924 219.281 61.8033 219.254 61.8033H218.5C218.473 61.8033 218.451 61.7924 218.434 61.7705C218.413 61.7541 218.402 61.7323 218.402 61.7049V56.164C218.402 56.1366 218.413 56.1148 218.434 56.0984C218.451 56.0765 218.473 56.0656 218.5 56.0656H219.254C219.303 56.0656 219.342 56.0875 219.369 56.1312L220.705 58.1558C220.716 58.1667 220.727 58.1722 220.738 58.1722C220.749 58.1722 220.757 58.1667 220.762 58.1558L222.098 56.1312ZM225.77 57.5492C226.115 57.5492 226.418 57.6093 226.68 57.7295C226.943 57.8498 227.145 58.0137 227.287 58.2213C227.429 58.4345 227.5 58.6749 227.5 58.9427V61.7049C227.5 61.7323 227.492 61.7541 227.475 61.7705C227.454 61.7924 227.429 61.8033 227.402 61.8033H226.648C226.62 61.8033 226.598 61.7924 226.582 61.7705C226.56 61.7541 226.549 61.7323 226.549 61.7049V61.4426C226.549 61.4263 226.544 61.4153 226.533 61.4099C226.522 61.4099 226.511 61.4153 226.5 61.4263C226.232 61.7213 225.844 61.8689 225.336 61.8689C224.926 61.8689 224.59 61.7651 224.328 61.5574C224.06 61.3498 223.926 61.041 223.926 60.6312C223.926 60.2049 224.076 59.8716 224.377 59.6312C224.672 59.3962 225.09 59.2787 225.631 59.2787H226.508C226.536 59.2787 226.549 59.2651 226.549 59.2377V59.041C226.549 58.8279 226.486 58.6612 226.361 58.541C226.235 58.4263 226.046 58.3689 225.795 58.3689C225.587 58.3689 225.421 58.4071 225.295 58.4836C225.164 58.5547 225.082 58.6558 225.049 58.7869C225.033 58.8525 224.995 58.8798 224.934 58.8689L224.139 58.7705C224.112 58.7651 224.09 58.7569 224.074 58.7459C224.052 58.7295 224.044 58.7104 224.049 58.6886C224.093 58.3552 224.273 58.082 224.59 57.8689C224.902 57.6558 225.295 57.5492 225.77 57.5492ZM225.574 61.1148C225.842 61.1148 226.071 61.0437 226.262 60.9017C226.454 60.7596 226.549 60.5793 226.549 60.3607V59.9754C226.549 59.9481 226.536 59.9345 226.508 59.9345H225.82C225.53 59.9345 225.303 59.9891 225.139 60.0984C224.97 60.2077 224.885 60.3634 224.885 60.5656C224.885 60.7405 224.951 60.8743 225.082 60.9672C225.208 61.0656 225.372 61.1148 225.574 61.1148ZM230.402 57.5656C230.577 57.5656 230.73 57.6011 230.861 57.6722C230.904 57.694 230.921 57.735 230.91 57.7951L230.77 58.5328C230.765 58.5984 230.727 58.6175 230.656 58.5902C230.574 58.5629 230.478 58.5492 230.369 58.5492C230.298 58.5492 230.243 58.5519 230.205 58.5574C229.975 58.5683 229.784 58.6476 229.631 58.7951C229.478 58.9481 229.402 59.1448 229.402 59.3853V61.7049C229.402 61.7323 229.393 61.7541 229.377 61.7705C229.355 61.7924 229.331 61.8033 229.303 61.8033H228.549C228.522 61.8033 228.5 61.7924 228.484 61.7705C228.462 61.7541 228.451 61.7323 228.451 61.7049V57.7131C228.451 57.6858 228.462 57.6612 228.484 57.6394C228.5 57.623 228.522 57.6148 228.549 57.6148H229.303C229.331 57.6148 229.355 57.623 229.377 57.6394C229.393 57.6612 229.402 57.6858 229.402 57.7131V58.082C229.402 58.1039 229.407 58.1148 229.418 58.1148C229.423 58.1202 229.432 58.1148 229.443 58.0984C229.672 57.7432 229.992 57.5656 230.402 57.5656ZM231.631 61.8033C231.604 61.8033 231.582 61.7924 231.566 61.7705C231.544 61.7541 231.533 61.7323 231.533 61.7049V56.164C231.533 56.1366 231.544 56.1148 231.566 56.0984C231.582 56.0765 231.604 56.0656 231.631 56.0656H232.385C232.413 56.0656 232.434 56.0765 232.451 56.0984C232.473 56.1148 232.484 56.1366 232.484 56.164V59.123C232.484 59.1394 232.489 59.1503 232.5 59.1558C232.511 59.1612 232.522 59.1558 232.533 59.1394L233.861 57.6722C233.899 57.6339 233.94 57.6148 233.984 57.6148H234.852C234.907 57.6148 234.934 57.6339 234.934 57.6722C234.934 57.6886 234.926 57.7104 234.91 57.7377L233.869 58.9836C233.852 59 233.85 59.0192 233.861 59.041L235.09 61.6886C235.101 61.7104 235.107 61.7268 235.107 61.7377C235.107 61.7814 235.076 61.8033 235.016 61.8033H234.221C234.167 61.8033 234.128 61.7787 234.107 61.7295L233.213 59.6476C233.208 59.6366 233.197 59.6284 233.18 59.623C233.169 59.623 233.161 59.6284 233.156 59.6394L232.5 60.3935C232.489 60.4153 232.484 60.4345 232.484 60.4508V61.7049C232.484 61.7323 232.473 61.7541 232.451 61.7705C232.434 61.7924 232.413 61.8033 232.385 61.8033H231.631ZM239.049 59.2377C239.071 59.3743 239.082 59.5274 239.082 59.6968L239.074 59.9508C239.074 60.0164 239.041 60.0492 238.975 60.0492H236.41C236.383 60.0492 236.369 60.0629 236.369 60.0902C236.385 60.2705 236.41 60.3935 236.443 60.459C236.574 60.8525 236.893 61.0519 237.402 61.0574C237.773 61.0574 238.068 60.9044 238.287 60.5984C238.309 60.5656 238.336 60.5492 238.369 60.5492C238.391 60.5492 238.41 60.5574 238.426 60.5738L238.934 60.9918C238.984 61.0301 238.992 61.0738 238.959 61.123C238.79 61.3634 238.563 61.5492 238.279 61.6804C238 61.8115 237.689 61.8771 237.344 61.8771C236.918 61.8771 236.555 61.7814 236.254 61.5902C235.959 61.3989 235.743 61.1312 235.607 60.7869C235.481 60.4918 235.418 60.082 235.418 59.5574C235.418 59.2405 235.451 58.9836 235.516 58.7869C235.626 58.4044 235.833 58.1011 236.139 57.8771C236.44 57.6585 236.803 57.5492 237.23 57.5492C238.306 57.5492 238.913 58.112 239.049 59.2377ZM237.23 58.3689C237.027 58.3689 236.858 58.4208 236.721 58.5246C236.59 58.623 236.497 58.7623 236.443 58.9427C236.41 59.0355 236.388 59.1558 236.377 59.3033C236.366 59.3306 236.377 59.3443 236.41 59.3443H238.074C238.101 59.3443 238.115 59.3306 238.115 59.3033C238.104 59.1667 238.087 59.0629 238.066 58.9918C238.016 58.7951 237.921 58.6421 237.779 58.5328C237.631 58.4235 237.448 58.3689 237.23 58.3689ZM242.09 58.2869C242.09 58.3142 242.082 58.3361 242.066 58.3525C242.044 58.3743 242.019 58.3853 241.992 58.3853H241.156C241.128 58.3853 241.115 58.3989 241.115 58.4263V60.4017C241.115 60.6093 241.161 60.7596 241.254 60.8525C241.342 60.9454 241.484 60.9918 241.68 60.9918H241.926C241.954 60.9918 241.975 61 241.992 61.0164C242.014 61.0383 242.025 61.0629 242.025 61.0902V61.7049C242.025 61.7651 241.992 61.8006 241.926 61.8115L241.5 61.8197C241.068 61.8197 240.746 61.7459 240.533 61.5984C240.32 61.4508 240.21 61.1722 240.205 60.7623V58.4263C240.205 58.3989 240.191 58.3853 240.164 58.3853H239.697C239.669 58.3853 239.648 58.3743 239.631 58.3525C239.609 58.3361 239.598 58.3142 239.598 58.2869V57.7131C239.598 57.6858 239.609 57.6612 239.631 57.6394C239.648 57.623 239.669 57.6148 239.697 57.6148H240.164C240.191 57.6148 240.205 57.6011 240.205 57.5738V56.6148C240.205 56.5875 240.216 56.5629 240.238 56.541C240.254 56.5246 240.276 56.5164 240.303 56.5164H241.016C241.044 56.5164 241.066 56.5246 241.082 56.541C241.104 56.5629 241.115 56.5875 241.115 56.6148V57.5738C241.115 57.6011 241.128 57.6148 241.156 57.6148H241.992C242.019 57.6148 242.044 57.623 242.066 57.6394C242.082 57.6612 242.09 57.6858 242.09 57.7131V58.2869Z" fill="white"/>
<path d="M209.639 73.3606C209.579 73.3606 209.541 73.3333 209.525 73.2787L208.074 67.7295L208.066 67.6967C208.066 67.6475 208.096 67.6229 208.156 67.6229H209.172C209.227 67.6229 209.262 67.6502 209.279 67.7049L210.057 71.041C210.063 71.0628 210.071 71.0737 210.082 71.0737C210.093 71.0737 210.101 71.0628 210.107 71.041L210.861 67.7131C210.877 67.653 210.913 67.6229 210.967 67.6229H211.959C212.019 67.6229 212.057 67.6502 212.074 67.7049L212.893 71.041C212.899 71.0573 212.907 71.0683 212.918 71.0737C212.929 71.0737 212.937 71.0628 212.943 71.041L213.697 67.7131C213.713 67.653 213.749 67.6229 213.803 67.6229H214.77C214.847 67.6229 214.877 67.6584 214.861 67.7295L213.516 73.2787C213.5 73.3333 213.462 73.3606 213.402 73.3606H212.426C212.372 73.3606 212.336 73.3333 212.32 73.2787L211.484 69.7295C211.478 69.7076 211.47 69.6967 211.459 69.6967C211.448 69.6967 211.44 69.7076 211.434 69.7295L210.656 73.2705C210.645 73.3306 210.609 73.3606 210.549 73.3606H209.639ZM215.656 73.3606C215.628 73.3606 215.604 73.3497 215.582 73.3278C215.566 73.3114 215.557 73.2896 215.557 73.2623V67.7213C215.557 67.694 215.566 67.6721 215.582 67.6557C215.604 67.6339 215.628 67.6229 215.656 67.6229H216.615C216.642 67.6229 216.664 67.6339 216.68 67.6557C216.702 67.6721 216.713 67.694 216.713 67.7213V73.2623C216.713 73.2896 216.702 73.3114 216.68 73.3278C216.664 73.3497 216.642 73.3606 216.615 73.3606H215.656ZM221.008 67.7213C221.008 67.694 221.016 67.6721 221.033 67.6557C221.055 67.6339 221.079 67.6229 221.107 67.6229H222.066C222.093 67.6229 222.115 67.6339 222.131 67.6557C222.153 67.6721 222.164 67.694 222.164 67.7213V73.2623C222.164 73.2896 222.153 73.3114 222.131 73.3278C222.115 73.3497 222.093 73.3606 222.066 73.3606H221.139C221.085 73.3606 221.046 73.3388 221.025 73.2951L218.902 69.7869C218.891 69.7705 218.88 69.765 218.869 69.7705C218.858 69.7705 218.852 69.7814 218.852 69.8033L218.869 73.2623C218.869 73.2896 218.858 73.3114 218.836 73.3278C218.82 73.3497 218.798 73.3606 218.77 73.3606H217.811C217.784 73.3606 217.76 73.3497 217.738 73.3278C217.721 73.3114 217.713 73.2896 217.713 73.2623V67.7213C217.713 67.694 217.721 67.6721 217.738 67.6557C217.76 67.6339 217.784 67.6229 217.811 67.6229H218.738C218.792 67.6229 218.831 67.6448 218.852 67.6885L220.967 71.1803C220.978 71.1967 220.989 71.2022 221 71.1967C221.011 71.1967 221.016 71.1858 221.016 71.1639L221.008 67.7213ZM227.123 67.6229C227.15 67.6229 227.172 67.6339 227.189 67.6557C227.21 67.6721 227.221 67.694 227.221 67.7213V68.5246C227.221 68.5519 227.21 68.5737 227.189 68.5901C227.172 68.612 227.15 68.6229 227.123 68.6229H225.656C225.628 68.6229 225.615 68.6366 225.615 68.6639V73.2623C225.615 73.2896 225.604 73.3114 225.582 73.3278C225.566 73.3497 225.544 73.3606 225.516 73.3606H224.557C224.53 73.3606 224.505 73.3497 224.484 73.3278C224.467 73.3114 224.459 73.2896 224.459 73.2623V68.6639C224.459 68.6366 224.445 68.6229 224.418 68.6229H222.992C222.964 68.6229 222.94 68.612 222.918 68.5901C222.902 68.5737 222.893 68.5519 222.893 68.5246V67.7213C222.893 67.694 222.902 67.6721 222.918 67.6557C222.94 67.6339 222.964 67.6229 222.992 67.6229H227.123ZM231.943 68.5164C231.943 68.5437 231.934 68.5655 231.918 68.5819C231.896 68.6038 231.872 68.6147 231.844 68.6147H229.156C229.128 68.6147 229.115 68.6284 229.115 68.6557V69.9262C229.115 69.9535 229.128 69.9672 229.156 69.9672H230.918C230.945 69.9672 230.967 69.9754 230.984 69.9918C231.005 70.0136 231.016 70.0382 231.016 70.0656V70.8606C231.016 70.8879 231.005 70.9125 230.984 70.9344C230.967 70.9508 230.945 70.959 230.918 70.959H229.156C229.128 70.959 229.115 70.9727 229.115 71V72.3278C229.115 72.3552 229.128 72.3688 229.156 72.3688H231.844C231.872 72.3688 231.896 72.377 231.918 72.3934C231.934 72.4153 231.943 72.4399 231.943 72.4672V73.2623C231.943 73.2896 231.934 73.3114 231.918 73.3278C231.896 73.3497 231.872 73.3606 231.844 73.3606H228.057C228.03 73.3606 228.005 73.3497 227.984 73.3278C227.967 73.3114 227.959 73.2896 227.959 73.2623V67.7213C227.959 67.694 227.967 67.6721 227.984 67.6557C228.005 67.6339 228.03 67.6229 228.057 67.6229H231.844C231.872 67.6229 231.896 67.6339 231.918 67.6557C231.934 67.6721 231.943 67.694 231.943 67.7213V68.5164ZM235.893 73.3606C235.839 73.3606 235.801 73.336 235.779 73.2869L234.754 71.0164C234.743 70.9945 234.727 70.9836 234.705 70.9836H233.943C233.915 70.9836 233.902 70.9972 233.902 71.0246V73.2623C233.902 73.2896 233.891 73.3114 233.869 73.3278C233.852 73.3497 233.831 73.3606 233.803 73.3606H232.844C232.817 73.3606 232.792 73.3497 232.77 73.3278C232.754 73.3114 232.746 73.2896 232.746 73.2623V67.7213C232.746 67.694 232.754 67.6721 232.77 67.6557C232.792 67.6339 232.817 67.6229 232.844 67.6229H235.189C235.538 67.6229 235.844 67.694 236.107 67.836C236.374 67.9781 236.579 68.1803 236.721 68.4426C236.869 68.7049 236.943 69.0082 236.943 69.3524C236.943 69.724 236.85 70.041 236.664 70.3032C236.478 70.571 236.219 70.7595 235.885 70.8688C235.858 70.8798 235.85 70.8989 235.861 70.9262L236.975 73.2459C236.986 73.2677 236.992 73.2841 236.992 73.2951C236.992 73.3388 236.962 73.3606 236.902 73.3606H235.893ZM233.943 68.6147C233.915 68.6147 233.902 68.6284 233.902 68.6557V70.0574C233.902 70.0847 233.915 70.0983 233.943 70.0983H235.016C235.246 70.0983 235.432 70.03 235.574 69.8934C235.721 69.7568 235.795 69.5792 235.795 69.3606C235.795 69.1421 235.721 68.9617 235.574 68.8196C235.432 68.683 235.246 68.6147 235.016 68.6147H233.943ZM215.295 80.0246C215.284 80.0355 215.281 80.0464 215.287 80.0573C215.292 80.0683 215.303 80.0737 215.32 80.0737H217.541C217.568 80.0737 217.593 80.0819 217.615 80.0983C217.631 80.1202 217.639 80.1448 217.639 80.1721V80.9672C217.639 80.9945 217.631 81.0164 217.615 81.0328C217.593 81.0546 217.568 81.0655 217.541 81.0655H213.852C213.825 81.0655 213.801 81.0546 213.779 81.0328C213.762 81.0164 213.754 80.9945 213.754 80.9672V80.2131C213.754 80.1639 213.77 80.1229 213.803 80.0901C214.071 79.8278 214.344 79.5437 214.623 79.2377C214.902 78.9262 215.076 78.7322 215.148 78.6557C215.301 78.4754 215.456 78.3033 215.615 78.1393C216.112 77.5874 216.361 77.1776 216.361 76.9098C216.361 76.7186 216.292 76.5601 216.156 76.4344C216.019 76.3142 215.842 76.2541 215.623 76.2541C215.404 76.2541 215.227 76.3142 215.09 76.4344C214.954 76.5601 214.885 76.724 214.885 76.9262V77.1311C214.885 77.1584 214.874 77.183 214.852 77.2049C214.836 77.2213 214.814 77.2295 214.787 77.2295H213.82C213.792 77.2295 213.77 77.2213 213.754 77.2049C213.732 77.183 213.721 77.1584 213.721 77.1311V76.7459C213.738 76.4508 213.831 76.1885 214 75.959C214.169 75.7349 214.393 75.5628 214.672 75.4426C214.956 75.3224 215.273 75.2623 215.623 75.2623C216.011 75.2623 216.35 75.3333 216.639 75.4754C216.923 75.6229 217.145 75.8196 217.303 76.0656C217.456 76.3115 217.533 76.5847 217.533 76.8852C217.533 77.1147 217.475 77.3497 217.361 77.5901C217.246 77.8306 217.074 78.0901 216.844 78.3688C216.675 78.5819 216.492 78.7923 216.295 79C216.098 79.2076 215.806 79.5082 215.418 79.9016L215.295 80.0246ZM220.303 81.1557C219.702 81.1557 219.227 80.9863 218.877 80.6475C218.527 80.3142 218.352 79.8579 218.352 79.2787V77.1147C218.352 76.5464 218.527 76.0956 218.877 75.7623C219.227 75.4289 219.702 75.2623 220.303 75.2623C220.904 75.2623 221.382 75.4289 221.738 75.7623C222.087 76.0956 222.262 76.5464 222.262 77.1147V79.2787C222.262 79.8579 222.087 80.3142 221.738 80.6475C221.382 80.9863 220.904 81.1557 220.303 81.1557ZM220.303 80.1639C220.549 80.1639 220.746 80.0874 220.893 79.9344C221.035 79.7869 221.107 79.5874 221.107 79.336V77.0819C221.107 76.8306 221.035 76.6311 220.893 76.4836C220.746 76.3306 220.549 76.2541 220.303 76.2541C220.063 76.2541 219.872 76.3306 219.729 76.4836C219.582 76.6311 219.508 76.8306 219.508 77.0819V79.336C219.508 79.5874 219.582 79.7869 219.729 79.9344C219.872 80.0874 220.063 80.1639 220.303 80.1639ZM224.557 80.0246C224.546 80.0355 224.544 80.0464 224.549 80.0573C224.555 80.0683 224.566 80.0737 224.582 80.0737H226.803C226.831 80.0737 226.855 80.0819 226.877 80.0983C226.893 80.1202 226.902 80.1448 226.902 80.1721V80.9672C226.902 80.9945 226.893 81.0164 226.877 81.0328C226.855 81.0546 226.831 81.0655 226.803 81.0655H223.115C223.087 81.0655 223.066 81.0546 223.049 81.0328C223.027 81.0164 223.016 80.9945 223.016 80.9672V80.2131C223.016 80.1639 223.033 80.1229 223.066 80.0901C223.333 79.8278 223.607 79.5437 223.885 79.2377C224.164 78.9262 224.339 78.7322 224.41 78.6557C224.563 78.4754 224.719 78.3033 224.877 78.1393C225.374 77.5874 225.623 77.1776 225.623 76.9098C225.623 76.7186 225.555 76.5601 225.418 76.4344C225.281 76.3142 225.104 76.2541 224.885 76.2541C224.667 76.2541 224.489 76.3142 224.352 76.4344C224.216 76.5601 224.148 76.724 224.148 76.9262V77.1311C224.148 77.1584 224.139 77.183 224.123 77.2049C224.101 77.2213 224.076 77.2295 224.049 77.2295H223.082C223.055 77.2295 223.033 77.2213 223.016 77.2049C222.995 77.183 222.984 77.1584 222.984 77.1311V76.7459C223 76.4508 223.093 76.1885 223.262 75.959C223.432 75.7349 223.658 75.5628 223.943 75.4426C224.221 75.3224 224.535 75.2623 224.885 75.2623C225.273 75.2623 225.612 75.3333 225.902 75.4754C226.186 75.6229 226.407 75.8196 226.566 76.0656C226.719 76.3115 226.795 76.5847 226.795 76.8852C226.795 77.1147 226.738 77.3497 226.623 77.5901C226.508 77.8306 226.336 78.0901 226.107 78.3688C225.937 78.5819 225.754 78.7923 225.557 79C225.361 79.2076 225.068 79.5082 224.68 79.9016L224.557 80.0246ZM231.033 78.3278C231.142 78.5792 231.197 78.8688 231.197 79.1967C231.197 79.4918 231.148 79.765 231.049 80.0164C230.918 80.3661 230.699 80.6393 230.393 80.836C230.082 81.0328 229.716 81.1311 229.295 81.1311C228.88 81.1311 228.516 81.0273 228.205 80.8196C227.888 80.612 227.661 80.3306 227.525 79.9754C227.448 79.7623 227.404 79.5328 227.393 79.2869C227.393 79.2213 227.426 79.1885 227.492 79.1885H228.459C228.525 79.1885 228.557 79.2213 228.557 79.2869C228.579 79.4672 228.609 79.6011 228.648 79.6885C228.697 79.8306 228.779 79.9399 228.893 80.0164C229.003 80.0983 229.134 80.1393 229.287 80.1393C229.593 80.1393 229.803 80.0054 229.918 79.7377C229.995 79.5737 230.033 79.3825 230.033 79.1639C230.033 78.9071 229.992 78.6967 229.91 78.5328C229.784 78.2759 229.574 78.1475 229.279 78.1475C229.219 78.1475 229.156 78.1639 229.09 78.1967C229.025 78.2349 228.945 78.2869 228.852 78.3524C228.831 78.3688 228.809 78.377 228.787 78.377C228.754 78.377 228.729 78.3606 228.713 78.3278L228.229 77.6475C228.219 77.6311 228.213 77.612 228.213 77.5901C228.213 77.5574 228.224 77.53 228.246 77.5082L229.549 76.3688C229.56 76.3579 229.566 76.347 229.566 76.336C229.56 76.3251 229.549 76.3196 229.533 76.3196H227.607C227.579 76.3196 227.557 76.3087 227.541 76.2869C227.519 76.2705 227.508 76.2486 227.508 76.2213V75.4262C227.508 75.3989 227.519 75.377 227.541 75.3606C227.557 75.3388 227.579 75.3278 227.607 75.3278H231.025C231.052 75.3278 231.076 75.3388 231.098 75.3606C231.115 75.377 231.123 75.3989 231.123 75.4262V76.3278C231.123 76.3716 231.104 76.4125 231.066 76.4508L229.992 77.4344C229.981 77.4453 229.978 77.4563 229.984 77.4672C229.984 77.4781 229.995 77.4836 230.016 77.4836C230.492 77.5765 230.831 77.8579 231.033 78.3278Z" fill="#252530"/>
</g>
<defs>
<clipPath id="clip0_4206_9285">
<rect width="77.0492" height="100" fill="white" transform="translate(92.0492)"/>
</clipPath>
<clipPath id="clip1_4206_9285">
<rect width="77.0492" height="100" fill="white" transform="translate(184.098)"/>
</clipPath>
</defs>
</svg>
